<svg id="Group_29576" data-name="Group 29576" xmlns="http://www.w3.org/2000/svg" width="29.597" height="30.957" viewBox="0 0 29.597 30.957">
  <ellipse id="Ellipse_521" data-name="Ellipse 521" cx="14.798" cy="15.479" rx="14.798" ry="15.479" fill="#b8b2db"/>
  <path id="Icon_awesome-user" data-name="Icon awesome-user" d="M6.148,7.027A3.513,3.513,0,1,0,2.635,3.513,3.513,3.513,0,0,0,6.148,7.027ZM8.608,7.9H8.149a4.778,4.778,0,0,1-4,0H3.689A3.69,3.69,0,0,0,0,11.594v1.142a1.318,1.318,0,0,0,1.317,1.317h9.662A1.318,1.318,0,0,0,12.3,12.736V11.594A3.69,3.69,0,0,0,8.608,7.9Z" transform="translate(8.65 8.452)" fill="#fff"/>
</svg>
