<svg xmlns="http://www.w3.org/2000/svg" width="38" height="34" viewBox="0 0 38 34">
  <g id="Group_32726" data-name="Group 32726" transform="translate(10729 -18278)">
    <rect id="Rectangle_21258" data-name="Rectangle 21258" width="38" height="34" rx="4" transform="translate(-10729 18278)" fill="none"/>
    <path id="icons8_clipboard_list" d="M14.8,4a2.453,2.453,0,0,0-2.419,2.175H10.447A2.46,2.46,0,0,0,8,8.622V23.3a2.46,2.46,0,0,0,2.447,2.447H22.954A2.46,2.46,0,0,0,25.4,23.3V8.622a2.46,2.46,0,0,0-2.447-2.447H21.024A2.453,2.453,0,0,0,18.6,4Zm0,1.631H18.6a.816.816,0,1,1,0,1.631H14.8a.816.816,0,1,1,0-1.631Zm-4.35,2.175h2.322A2.453,2.453,0,0,0,14.8,8.894H18.6a2.453,2.453,0,0,0,2.029-1.088h2.322a.8.8,0,0,1,.816.816V23.3a.8.8,0,0,1-.816.816H10.447a.8.8,0,0,1-.816-.816V8.622A.8.8,0,0,1,10.447,7.807ZM12.622,12.7a.816.816,0,1,0,.816.816A.816.816,0,0,0,12.622,12.7Zm3.263,0a.816.816,0,1,0,0,1.631h4.894a.816.816,0,1,0,0-1.631Zm-3.263,3.263a.816.816,0,1,0,.816.816A.816.816,0,0,0,12.622,15.964Zm3.263,0a.816.816,0,1,0,0,1.631h4.894a.816.816,0,1,0,0-1.631Zm-3.263,3.263a.816.816,0,1,0,.816.816A.816.816,0,0,0,12.622,19.226Zm3.263,0a.816.816,0,1,0,0,1.631h4.894a.816.816,0,1,0,0-1.631Z" transform="translate(-10727 18280)" fill="#989ba5"/>
  </g>
</svg>
