<svg xmlns="http://www.w3.org/2000/svg" width="38" height="34" viewBox="0 0 38 34">
  <g id="Group_32729" data-name="Group 32729" transform="translate(10575 -18278)">
    <rect id="Rectangle_21330" data-name="Rectangle 21330" width="38" height="34" rx="4" transform="translate(-10575 18278)" fill="none"/>
    <g id="Layer_x0020_1" transform="translate(-10571.479 18283.508)">
      <path id="Subtraction_1" data-name="Subtraction 1" d="M11.553,21.466a2.059,2.059,0,0,1-1.235-.387L2.7,15.059A1.622,1.622,0,0,0,1.68,14.8c-.1,0-.2,0-.3.008l-.066,0-.074,0-.059,0c-.141.006-.255.01-.358.01-.675,0-.754-.165-.788-.381C0,14.138-.011,10.694.015,4.207c0-.312,0-.581,0-.789s0-.35,0-.42a.925.925,0,0,1,.128-.6c.044-.066.147-.1.3-.1a2.9,2.9,0,0,1,.714.125c.31.079.571.152.8.215L2,2.646l.2.055.027.007a4.936,4.936,0,0,0,1.211.261,1.669,1.669,0,0,0,.9-.327l.008,0A12.951,12.951,0,0,1,5.66,1.96a9.64,9.64,0,0,1,3.657-.9,4.605,4.605,0,0,1,.939.091,2.724,2.724,0,0,0,.6.091.912.912,0,0,0,.576-.215l.01,0a4.958,4.958,0,0,1,1-.526A6.235,6.235,0,0,1,14.9,0a13.028,13.028,0,0,1,4.879,1.3c.538.219,1.022.417,1.509.593l.036.014c.7.254,1.4.5,2.1.724l.122.042.074.027.02.006.1.032.027.008h.009a4.349,4.349,0,0,0,1.421.3,3.137,3.137,0,0,0,.848-.119l.634-.17.161-.046.207-.055.042-.012a7.923,7.923,0,0,1,1.672-.366c.209,0,.265.058.285.077.082.082.179.317.176.975,0,.252,0,.764.009,1.406l0,.278c.017,2.658.056,8.882-.1,9.615-.128.148-.465.224-1,.224-.151,0-.315-.006-.447-.009l-.074,0h-.072l-.046,0c-.153-.009-.312-.016-.456-.016h-.022a4.3,4.3,0,0,0-1.613.307h0l-.016.006-.03.01a4.986,4.986,0,0,1-.806.231l-.025.008-.259.088-.022.243a2.187,2.187,0,0,1-.957,1.886,1.85,1.85,0,0,1-1.035.352,4.373,4.373,0,0,1-1.269-.288l-.327-.105-.134.318a2.035,2.035,0,0,1-1.141,1.108,2.085,2.085,0,0,1-.742.164,2.542,2.542,0,0,1-.854-.2c-.1-.037-.2-.07-.319-.109l-.33-.11-.131.32a2.021,2.021,0,0,1-1.134,1.1H15.86a2.006,2.006,0,0,1-.747.166,2.863,2.863,0,0,1-.945-.222l-.057-.018-.026-.009-.039-.012-.085-.029-.231-.08-.165.181a1.752,1.752,0,0,0-.2.288,1.979,1.979,0,0,1-1.138.945A2.078,2.078,0,0,1,11.553,21.466ZM3.4,14.015h0l-.226.236a5.022,5.022,0,0,0,.493.411l.068.053c.117.088.224.173.33.259.2.164.337.268.459.363.039.03.078.061.118.091.091.069.193.148.3.234.88.716,1.839,1.459,2.747,2.16l.248.194.1.075c.9.7,1.827,1.42,2.681,2.127a1.341,1.341,0,0,0,.854.323,1.178,1.178,0,0,0,1.182-1.07c.061-.656-.535-1.214-1.111-1.753l-.014-.014-.044-.042c-.1-.1-.221-.207-.327-.311l-.178-.173L11,17.117l-.068-.066-.018-.017c-.23-.217-.491-.464-.693-.7-.282-.333-.3-.466-.3-.49a.411.411,0,0,1,.377-.471.427.427,0,0,1,.054,0c.227,0,.381.15.575.364.04.047.078.087.115.122.334.341.6.613.848.856l.156.157.136.136c.135.135.275.275.415.419s.3.307.448.464l.024.024.079.083.028.03c.342.356.7.723,1.033,1.012a1.346,1.346,0,0,0,.87.337,1.213,1.213,0,0,0,1.073-.655,1.186,1.186,0,0,0-.128-1.26,11.564,11.564,0,0,0-1.192-1.227c-.053-.052-.105-.1-.156-.15l-.036-.035c-.086-.081-.169-.161-.24-.231l-.406-.4-.3-.3-.021-.021c-.284-.281-.552-.548-.839-.837l-.072-.067-.018-.017c-.012-.013-.025-.025-.038-.037l0,0-.008-.007a1.5,1.5,0,0,1-.441-.563l0-.016a.427.427,0,0,1,.055-.334.452.452,0,0,1,.278-.2l.006,0a.419.419,0,0,1,.106-.012c.191,0,.338.137.511.318.019.02.037.035.053.05.07.072.139.141.205.207l.219.221c.032.032.064.064.1.095l.1.1.085.083.109.107c.057.06.153.159.3.31l.084.084c2.853,2.914,3.516,3.486,3.793,3.559a1.222,1.222,0,0,0,.3.042,1.26,1.26,0,0,0,1.147-.743,1.366,1.366,0,0,0-.458-1.528l-3.96-3.968a1.55,1.55,0,0,0-.12-.112l-.047-.043L15.1,11.77a1.9,1.9,0,0,1-.431-.487.516.516,0,0,1,.059-.4.38.38,0,0,1,.337-.186c.288,0,.6.334.988.757l.046.051.047.051.053.055c.093.1.189.2.293.3l3.149,3.155c.154.154.312.318.47.486a13.71,13.71,0,0,0,1.153,1.127,1.384,1.384,0,0,0,.87.332,1.211,1.211,0,0,0,1.085-.683,1.168,1.168,0,0,0-.15-1.251A13.2,13.2,0,0,0,21.914,13.9c-.164-.154-.315-.3-.449-.431l-.013-.012c-.7-.7-1.444-1.45-2.225-2.241l-.012-.012c-1.338-1.354-2.721-2.754-4.14-4.119l-.218-.209-1.478,1a4.463,4.463,0,0,1-2.179.591A3.418,3.418,0,0,1,8.478,7.218a2.455,2.455,0,0,1-.442-2.172A5.631,5.631,0,0,1,9.109,3.238l0,0c.171-.219.351-.452.493-.665l.384-.587-.7.006a8.747,8.747,0,0,0-3.579.948c-1.372.633-1.475.835-1.536.955a7.6,7.6,0,0,0-.24,1.671c-.1.811-.222,1.945-.368,3.283l-.015.141c-.113,1.073-.325,3.073-.427,4.177L3.058,13.1l0,.876v.031l.006.031.334-.028ZM16.322,3.865h.021a.442.442,0,0,1,.444.4c.018.274-.4.774-.645,1.073a3.506,3.506,0,0,0-.49.682l-.256.536h.44l5.883,5.852c.071.075.181.18.3.291l.1.1.081.079.016.015a17.513,17.513,0,0,1,1.434,1.483l.143.252,2-.566,0-.284c-.007-1.249-.147-2.705-.272-3.99-.055-.583-.114-1.2-.159-1.771l-.283-3.657-.01-.028a.41.41,0,0,0-.243-.393,1.329,1.329,0,0,0-.268-.074l-.066-.012-.018,0c-.056-.012-.126-.028-.206-.047a48.861,48.861,0,0,1-5.672-2l-.033-.014A9.988,9.988,0,0,0,14.86.944a5.38,5.38,0,0,0-2.843.769,7.86,7.86,0,0,0-2.441,2.45l-.032.047,0,.006c-.4.6-1.156,1.718-.189,2.635a3.09,3.09,0,0,0,2.805.561A8.1,8.1,0,0,0,15.72,4.4l.022-.032c.01-.015.02-.03.03-.044l.042-.06C16.014,3.971,16.1,3.869,16.322,3.865Zm11.734-.486-2.129.508L26.691,13.9l1.615,0V3.649l-.25-.27ZM.944,2.876.935,13.887l1.2.006L3.207,3.865l-1.7-.424L.944,2.876Z" transform="translate(0.479 0.493)" fill="#989ba5" stroke="#989ba5" stroke-width="0.7"/>
    </g>
  </g>
</svg>
