<svg xmlns="http://www.w3.org/2000/svg" width="30" height="28" viewBox="0 0 30 28">
  <g id="Group_32743" data-name="Group 32743" transform="translate(-14 -382)">
    <g id="Group_32734" data-name="Group 32734" transform="translate(-260.35 -398.734)">
      <rect id="Rectangle_21260" data-name="Rectangle 21260" width="30" height="28" rx="4" transform="translate(274.35 780.734)" fill="none"/>
    </g>
    <g id="Layer_x0020_1" transform="translate(17.43 387.51)">
      <path id="Subtraction_1" data-name="Subtraction 1" d="M9.14,16.981a1.625,1.625,0,0,1-.976-.3L2.132,11.915a1.261,1.261,0,0,0-.8-.206c-.1,0-.2,0-.291.008l-.054,0c-.12.005-.227.009-.33.009-.534,0-.6-.13-.626-.3-.048-.363-.023-6.186-.015-8.1,0-.285,0-.523,0-.7V2.624c0-.12,0-.206,0-.252a.759.759,0,0,1,.1-.477c.017-.021.062-.077.244-.077a2.308,2.308,0,0,1,.564.1c.274.073.54.147.814.224l.024.007a3.946,3.946,0,0,0,.953.2,1.329,1.329,0,0,0,.712-.259,9.928,9.928,0,0,1,1.05-.54A7.593,7.593,0,0,1,7.371.837a3.556,3.556,0,0,1,.743.075,2.411,2.411,0,0,0,.475.072A.725.725,0,0,0,9.041.816l.005,0A3.816,3.816,0,0,1,9.84.393,4.975,4.975,0,0,1,11.788,0a10.371,10.371,0,0,1,3.859,1.026l.008,0c.389.159.792.323,1.185.465.517.187,1.1.4,1.692.585.076.023.149.048.219.071l.031.01.014,0a3.487,3.487,0,0,0,1.137.238,2.587,2.587,0,0,0,.672-.093c.25-.065.484-.13.691-.188l.1-.028a6.4,6.4,0,0,1,1.357-.3c.17,0,.212.046.226.061.064.064.14.249.139.769,0,.181,0,.571.006,1.112.014,1.976.051,7.225-.073,7.83-.1.118-.367.177-.793.177-.158,0-.323-.007-.468-.014l-.078,0c-.113,0-.219-.009-.321-.009h-.016a3.413,3.413,0,0,0-1.287.246,4.308,4.308,0,0,1-.667.2l-.02,0-.2.068-.016.195a1.735,1.735,0,0,1-.758,1.491,1.483,1.483,0,0,1-.818.281,3.489,3.489,0,0,1-1-.23l-.26-.083-.1.251a1.609,1.609,0,0,1-.9.877,1.645,1.645,0,0,1-.586.129,2,2,0,0,1-.671-.159l-.083-.028-.174-.059-.26-.086-.106.254a1.709,1.709,0,0,1-1.493,1,2.33,2.33,0,0,1-.749-.173l-.164-.056-.182-.061-.131.142a1.574,1.574,0,0,0-.161.226,1.552,1.552,0,0,1-.9.748A1.643,1.643,0,0,1,9.14,16.981ZM2.419,10.368h0l0,.693v.024l0,.024.087.166a4.446,4.446,0,0,0,.422.351l.021.016c.074.056.163.123.262.205.133.109.257.2.363.286s.216.166.329.259c.67.547,1.39,1.1,2.087,1.645l.086.066c.8.62,1.629,1.26,2.394,1.893a1.057,1.057,0,0,0,.676.255.932.932,0,0,0,.935-.845c.049-.523-.428-.968-.889-1.4l-.046-.042c-.088-.082-.171-.159-.247-.236s-.149-.145-.233-.225l-.015-.014-.015-.014a7.6,7.6,0,0,1-.546-.555c-.219-.256-.236-.366-.237-.386a.326.326,0,0,1,.3-.372l.044,0c.179,0,.3.114.455.288.029.033.059.065.09.1l.645.649.006.006.021.021c.186.186.369.369.56.562.112.113.227.234.348.362l.025.026.01.011a12.5,12.5,0,0,0,.893.88,1.061,1.061,0,0,0,.688.268.961.961,0,0,0,.849-.521.942.942,0,0,0-.1-.994,8.822,8.822,0,0,0-.932-.963l-.011-.01-.031-.03c-.117-.111-.226-.214-.311-.3l-.321-.318L11,12.12l-.84-.834-.062-.06-.037-.036a1.207,1.207,0,0,1-.359-.455l0-.01a.351.351,0,0,1,.043-.266.347.347,0,0,1,.222-.152.414.414,0,0,1,.087-.01c.149,0,.257.1.406.249.015.016.027.03.041.042.119.12.23.23.338.337s.2.2.305.3c.039.038.1.1.175.178l.129.131c2.256,2.307,2.781,2.759,3,2.818a.935.935,0,0,0,.237.03,1,1,0,0,0,.908-.586,1.08,1.08,0,0,0-.364-1.207L12.1,9.452c-.032-.032-.069-.066-.112-.1l-.021-.019c-.092-.083-.337-.3-.36-.4a.409.409,0,0,1,.045-.314.312.312,0,0,1,.192-.141.327.327,0,0,1,.073-.008c.228,0,.472.264.782.6.125.135.232.249.349.367l2.491,2.5c.1.1.223.229.371.386l.024.025a10.426,10.426,0,0,0,.89.867,1.093,1.093,0,0,0,.689.261.959.959,0,0,0,.858-.539.922.922,0,0,0-.118-.989,10.189,10.189,0,0,0-.894-.922L17.34,11c-.119-.113-.255-.242-.366-.353-.535-.533-1.075-1.078-1.6-1.606l-.164-.166c-1-1.014-2.136-2.162-3.284-3.267l-.173-.166-1.169.79A3.532,3.532,0,0,1,8.863,6.7,2.711,2.711,0,0,1,6.707,5.71a1.947,1.947,0,0,1-.349-1.717,4.4,4.4,0,0,1,.85-1.433l.036-.047c.13-.169.253-.329.353-.482l.3-.463-.554,0a7,7,0,0,0-2.832.75c-1.086.5-1.168.663-1.216.759A6.3,6.3,0,0,0,3.109,4.4C3.03,5.074,2.928,6,2.82,7c-.12,1.1-.275,2.587-.352,3.415ZM12.931,3.057h0a.35.35,0,0,1,.35.32c.015.212-.3.591-.5.842l0,.006a2.991,2.991,0,0,0-.388.539l-.2.426h.349l4.653,4.631c.047.047.111.109.187.183l.128.124.009.008a14.976,14.976,0,0,1,1.2,1.237l.115.2,1.577-.449V10.9c-.006-.972-.112-2.082-.214-3.156-.047-.484-.092-.955-.126-1.4l-.225-2.893-.007-.023a.324.324,0,0,0-.194-.31.991.991,0,0,0-.212-.058l-.23-.05A38.51,38.51,0,0,1,14.7,1.418l-.017-.007A7.893,7.893,0,0,0,11.756.746a4.26,4.26,0,0,0-2.25.61,6.244,6.244,0,0,0-1.93,1.939l-.026.036C7.23,3.807,6.633,4.693,7.4,5.42a2.433,2.433,0,0,0,2.22.444,6.377,6.377,0,0,0,2.819-2.382l.044-.063.032-.046c.158-.231.228-.312.4-.317ZM22.2,2.674l-1.687.4L21.117,11l1.278,0V2.887l-.2-.212ZM.747,2.275.74,10.986l.947.006.851-7.934L1.195,2.722.747,2.275Z" transform="translate(0 0)" fill="#121924" stroke="#121924" stroke-width="0.6"/>
    </g>
  </g>
</svg>
