<svg xmlns="http://www.w3.org/2000/svg" width="30" height="28" viewBox="0 0 30 28">
  <g id="Group_32736" data-name="Group 32736" transform="translate(-274.35 -780.734)">
    <rect id="Rectangle_21260" data-name="Rectangle 21260" width="30" height="28" rx="4" transform="translate(274.35 780.734)" fill="none"/>
    <path id="Icon_material-attach-file" data-name="Icon material-attach-file" d="M19.2,6.08V16.615a3.664,3.664,0,1,1-7.329,0V5.164a2.29,2.29,0,0,1,4.58,0v9.619a.916.916,0,1,1-1.832,0V6.08H13.248v8.7a2.29,2.29,0,1,0,4.58,0V5.164a3.664,3.664,0,1,0-7.329,0V16.615a5.038,5.038,0,1,0,10.077,0V6.08Z" transform="translate(287.803 775.826) rotate(49)" fill="#1b1d4d"/>
  </g>
</svg>
