<svg xmlns="http://www.w3.org/2000/svg" width="30" height="28" viewBox="0 0 30 28">
  <g id="Group_32737" data-name="Group 32737" transform="translate(-274.35 -780.734)">
    <rect id="Rectangle_21260" data-name="Rectangle 21260" width="30" height="28" rx="4" transform="translate(274.35 780.734)" fill="none"/>
    <path id="icons8_user_location" d="M16.907,2A8.7,8.7,0,0,0,8,10.45c0,2.015,1.312,4.415,2.83,6.783a67.35,67.35,0,0,0,4.392,5.972,2.224,2.224,0,0,0,3.367,0,67.285,67.285,0,0,0,4.394-5.972c1.518-2.368,2.83-4.768,2.83-6.783A8.7,8.7,0,0,0,16.907,2Zm0,1.584a7.046,7.046,0,0,1,7.237,6.866c0,1.272-1.125,3.679-2.588,5.96a66.144,66.144,0,0,1-4.285,5.825.456.456,0,0,1-.728,0,66.185,66.185,0,0,1-4.285-5.825C10.8,14.129,9.67,11.722,9.67,10.45A7.046,7.046,0,0,1,16.907,3.584Zm0,3.169A2.172,2.172,0,0,0,14.68,8.866a2.23,2.23,0,0,0,4.453,0A2.172,2.172,0,0,0,16.907,6.753Zm-3.091,5.281a.785.785,0,0,0-.806.764v.689c0,1.174,1.579,2.243,3.9,2.243s3.9-1.069,3.9-2.243V12.8A.785.785,0,0,0,20,12.034Z" transform="translate(272.349 781.734)" fill="#121924"/>
  </g>
</svg>
