<svg xmlns="http://www.w3.org/2000/svg" width="30" height="28" viewBox="0 0 30 28">
  <g id="Group_32832" data-name="Group 32832" transform="translate(-13.903 -382)">
    <g id="Group_32734" data-name="Group 32734" transform="translate(-260.446 -398.734)">
      <rect id="Rectangle_21260" data-name="Rectangle 21260" width="30" height="28" rx="4" transform="translate(274.35 780.734)" fill="none"/>
    </g>
    <g id="Icon" transform="translate(20.903 386)">
      <path id="Icon_awesome-user" data-name="Icon awesome-user" d="M7.829,7.472A4.359,4.359,0,0,0,12.3,3.236,4.359,4.359,0,0,0,7.829-1,4.359,4.359,0,0,0,3.355,3.236,4.359,4.359,0,0,0,7.829,7.472Zm3.132,1.9h-.584a6.4,6.4,0,0,1-5.1,0H4.7A4.579,4.579,0,0,0,0,13.817v1.377a1.635,1.635,0,0,0,1.678,1.588h12.3a1.635,1.635,0,0,0,1.678-1.588V13.817A4.579,4.579,0,0,0,10.96,9.369Z" transform="translate(0.5 2.5)" fill="none" stroke="#111824" stroke-width="1.3"/>
    </g>
  </g>
</svg>
