<svg xmlns="http://www.w3.org/2000/svg" width="28" height="28" viewBox="0 0 28 28">
  <g id="icon_box" data-name="icon box" transform="translate(0.166 0.166)">
    <rect id="icon_box-2" data-name="icon box" width="28" height="28" rx="14" transform="translate(-0.166 -0.166)" fill="#5b6ebc"/>
    <path id="Icon_awesome-user" data-name="Icon awesome-user" d="M6.912,7.479a3.848,3.848,0,0,0,3.949-3.74A3.848,3.848,0,0,0,6.912,0,3.848,3.848,0,0,0,2.962,3.74,3.848,3.848,0,0,0,6.912,7.479Zm2.765.935H9.161a5.646,5.646,0,0,1-4.5,0H4.147A4.042,4.042,0,0,0,0,12.34v1.215a1.444,1.444,0,0,0,1.481,1.4H12.342a1.444,1.444,0,0,0,1.481-1.4V12.34A4.042,4.042,0,0,0,9.676,8.414Z" transform="translate(7.373 5.994)" fill="none" stroke="#fff" stroke-width="0.9"/>
  </g>
</svg>
