<svg xmlns="http://www.w3.org/2000/svg" xmlns:xlink="http://www.w3.org/1999/xlink" width="129.418" height="89.226" viewBox="0 0 129.418 89.226">
  <defs>
    <linearGradient id="linear-gradient" x1="0.5" x2="0.5" y2="1" gradientUnits="objectBoundingBox">
      <stop offset="0" stop-color="#ff7a7a"/>
      <stop offset="1" stop-color="#d92f2f"/>
    </linearGradient>
  </defs>
  <g id="Group_32479" data-name="Group 32479" transform="translate(9502 -6998)">
    <g id="icon" transform="translate(-9502 6998)">
      <path id="Vector" d="M11.254,5.627c-.247.108-.478.185-.709.262-.247.077-.478.139-.709.2-.462.108-.94.2-1.4.277l-.694.092a1.458,1.458,0,0,0-1.28,1.28l-.093.694a11.28,11.28,0,0,1-.277,1.4c-.062.247-.123.478-.2.709a5.566,5.566,0,0,1-.262.709c-.108-.247-.185-.478-.262-.709-.077-.247-.139-.478-.2-.709-.108-.462-.2-.94-.277-1.4l-.092-.694a1.458,1.458,0,0,0-1.28-1.28l-.694-.092a11.28,11.28,0,0,1-1.4-.277c-.247-.062-.478-.123-.709-.2A5.566,5.566,0,0,1,0,5.627c.247-.108.478-.185.709-.262.247-.077.478-.139.709-.2.462-.108.94-.2,1.4-.277l.694-.092a1.458,1.458,0,0,0,1.28-1.28l.092-.694a11.28,11.28,0,0,1,.277-1.4c.062-.247.123-.478.2-.709A5.566,5.566,0,0,1,5.627,0c.108.247.185.478.262.709.077.247.139.478.2.709.108.462.2.94.277,1.4l.093.694a1.458,1.458,0,0,0,1.28,1.28l.694.092a11.279,11.279,0,0,1,1.4.277c.247.062.478.123.709.2S11.007,5.519,11.254,5.627Z" transform="matrix(1, 0, 0, 1, 110.126, 77.972)" fill="url(#linear-gradient)"/>
      <path id="Vector-2" data-name="Vector" d="M8.842,4.421c-.186.083-.372.145-.558.207a5.7,5.7,0,0,1-.558.165,9.343,9.343,0,0,1-1.095.227c-.165.021-.351.041-.537.062A1.162,1.162,0,0,0,5.082,6.095c-.021.165-.041.351-.062.537-.062.351-.145.723-.227,1.095-.062.186-.1.372-.165.558s-.124.372-.207.558c-.083-.186-.145-.372-.207-.558a5.7,5.7,0,0,1-.165-.558,9.343,9.343,0,0,1-.227-1.095c-.021-.165-.041-.351-.062-.537A1.162,1.162,0,0,0,2.748,5.082c-.165-.021-.351-.041-.537-.062-.351-.062-.723-.145-1.095-.227C.93,4.731.744,4.69.558,4.628S.186,4.5,0,4.421c.186-.083.372-.145.558-.207a5.7,5.7,0,0,1,.558-.165,9.343,9.343,0,0,1,1.095-.227c.165-.021.351-.041.537-.062A1.162,1.162,0,0,0,3.76,2.748c.021-.165.041-.351.062-.537.062-.351.145-.723.227-1.095.062-.186.1-.372.165-.558S4.338.186,4.421,0c.083.186.145.372.207.558a5.7,5.7,0,0,1,.165.558A9.343,9.343,0,0,1,5.02,2.211c.021.165.041.351.062.537A1.162,1.162,0,0,0,6.095,3.76c.165.021.351.041.537.062.351.062.723.145,1.095.227.186.062.372.1.558.165s.372.124.558.207Z" transform="matrix(1, 0, 0, 1, 120.575, 72.345)" fill="url(#linear-gradient)"/>
      <circle id="Ellipse_45" data-name="Ellipse 45" cx="39.927" cy="39.927" r="39.927" transform="translate(22.029 8.358)" fill="url(#linear-gradient)"/>
      <path id="Vector-3" data-name="Vector" d="M11.254,5.627c-.247.108-.478.185-.709.262-.247.077-.478.139-.709.2-.462.108-.94.2-1.4.277l-.694.092a1.458,1.458,0,0,0-1.28,1.28l-.093.694a11.28,11.28,0,0,1-.277,1.4c-.062.247-.123.478-.2.709a5.566,5.566,0,0,1-.262.709c-.108-.247-.185-.478-.262-.709-.077-.247-.139-.478-.2-.709-.108-.462-.2-.94-.277-1.4l-.092-.694a1.458,1.458,0,0,0-1.28-1.28l-.694-.092a11.28,11.28,0,0,1-1.4-.277c-.247-.062-.478-.123-.709-.2A5.566,5.566,0,0,1,0,5.627c.247-.108.478-.185.709-.262.247-.077.478-.139.709-.2.462-.108.94-.2,1.4-.277l.694-.092a1.458,1.458,0,0,0,1.28-1.28l.092-.694a11.28,11.28,0,0,1,.277-1.4c.062-.247.123-.478.2-.709A5.566,5.566,0,0,1,5.627,0c.108.247.185.478.262.709.077.247.139.478.2.709.108.462.2.94.277,1.4l.093.694a1.458,1.458,0,0,0,1.28,1.28l.694.092a11.279,11.279,0,0,1,1.4.277c.247.062.478.123.709.2S11.007,5.519,11.254,5.627Z" transform="matrix(1, 0, 0, 1, 0, 5.627)" fill="url(#linear-gradient)"/>
      <path id="Vector-4" data-name="Vector" d="M8.842,4.421c-.186.083-.372.145-.558.207a5.7,5.7,0,0,1-.558.165,9.343,9.343,0,0,1-1.095.227c-.165.021-.351.041-.537.062A1.162,1.162,0,0,0,5.082,6.095c-.021.165-.041.351-.062.537-.062.351-.145.723-.227,1.095-.062.186-.1.372-.165.558s-.124.372-.207.558c-.083-.186-.145-.372-.207-.558a5.7,5.7,0,0,1-.165-.558,9.343,9.343,0,0,1-.227-1.095c-.021-.165-.041-.351-.062-.537A1.162,1.162,0,0,0,2.748,5.082c-.165-.021-.351-.041-.537-.062-.351-.062-.723-.145-1.095-.227C.93,4.731.744,4.69.558,4.628S.186,4.5,0,4.421c.186-.083.372-.145.558-.207a5.7,5.7,0,0,1,.558-.165,9.343,9.343,0,0,1,1.095-.227c.165-.021.351-.041.537-.062A1.162,1.162,0,0,0,3.76,2.748c.021-.165.041-.351.062-.537.062-.351.145-.723.227-1.095.062-.186.1-.372.165-.558S4.338.186,4.421,0c.083.186.145.372.207.558a5.7,5.7,0,0,1,.165.558A9.343,9.343,0,0,1,5.02,2.211c.021.165.041.351.062.537A1.162,1.162,0,0,0,6.095,3.76c.165.021.351.041.537.062.351.062.723.145,1.095.227.186.062.372.1.558.165s.372.124.558.207Z" transform="matrix(1, 0, 0, 1, 10.45, 0)" fill="url(#linear-gradient)"/>
    </g>
    <g id="Icon-2" data-name="Icon" transform="translate(-9455.729 7027.212)">
      <path id="Icon_awesome-user" data-name="Icon awesome-user" d="M15.971,17.283A8.893,8.893,0,0,0,25.1,8.641,8.893,8.893,0,0,0,15.971,0,8.893,8.893,0,0,0,6.845,8.641,8.893,8.893,0,0,0,15.971,17.283Zm6.389,2.16H21.169a13.046,13.046,0,0,1-10.4,0H9.583A9.341,9.341,0,0,0,0,28.516v2.808a3.336,3.336,0,0,0,3.422,3.24h25.1a3.336,3.336,0,0,0,3.422-3.24V28.516A9.341,9.341,0,0,0,22.36,19.443Z" transform="translate(0 0)" fill="none" stroke="#fff" stroke-width="2"/>
    </g>
  </g>
</svg>
