<svg xmlns="http://www.w3.org/2000/svg" xmlns:xlink="http://www.w3.org/1999/xlink" width="139.458" height="96.148" viewBox="0 0 139.458 96.148">
  <defs>
    <linearGradient id="linear-gradient" x1="0.5" x2="0.5" y2="1" gradientUnits="objectBoundingBox">
      <stop offset="0" stop-color="#6b99cb"/>
      <stop offset="1" stop-color="#161966"/>
    </linearGradient>
  </defs>
  <g id="icon" transform="translate(0)">
    <path id="Vector" d="M12.127,6.063c-.266.116-.515.2-.764.282-.266.083-.515.15-.764.216-.5.116-1.013.216-1.512.3l-.748.1A1.571,1.571,0,0,0,6.96,8.339l-.1.748a12.155,12.155,0,0,1-.3,1.512c-.066.266-.133.515-.216.764a6,6,0,0,1-.282.764c-.116-.266-.2-.515-.282-.764-.083-.266-.15-.515-.216-.764-.116-.5-.216-1.013-.3-1.512l-.1-.748A1.571,1.571,0,0,0,3.788,6.96l-.748-.1a12.155,12.155,0,0,1-1.512-.3c-.266-.066-.515-.133-.764-.216A6,6,0,0,1,0,6.063c.266-.116.515-.2.764-.282.266-.083.515-.15.764-.216.5-.116,1.013-.216,1.512-.3l.748-.1A1.571,1.571,0,0,0,5.166,3.788l.1-.748a12.155,12.155,0,0,1,.3-1.512c.066-.266.133-.515.216-.764A6,6,0,0,1,6.063,0c.116.266.2.515.282.764.083.266.15.515.216.764.116.5.216,1.013.3,1.512l.1.748A1.571,1.571,0,0,0,8.339,5.166l.748.1a12.154,12.154,0,0,1,1.512.3c.266.066.515.133.764.216S11.861,5.947,12.127,6.063Z" transform="matrix(1, 0, 0, 1, 118.669, 84.021)" fill="url(#linear-gradient)"/>
    <path id="Vector-2" data-name="Vector" d="M9.528,4.764c-.2.089-.4.156-.6.223a6.141,6.141,0,0,1-.6.178,10.068,10.068,0,0,1-1.18.245c-.178.022-.378.045-.579.067A1.253,1.253,0,0,0,5.476,6.567c-.022.178-.045.378-.067.579-.067.378-.156.779-.245,1.18-.067.2-.111.4-.178.6s-.134.4-.223.6c-.089-.2-.156-.4-.223-.6a6.142,6.142,0,0,1-.178-.6,10.068,10.068,0,0,1-.245-1.18c-.022-.178-.045-.378-.067-.579A1.253,1.253,0,0,0,2.961,5.476c-.178-.022-.378-.045-.579-.067C2,5.343,1.6,5.254,1.2,5.165,1,5.1.8,5.054.6,4.987S.2,4.853,0,4.764c.2-.089.4-.156.6-.223a6.141,6.141,0,0,1,.6-.178,10.068,10.068,0,0,1,1.18-.245c.178-.022.378-.045.579-.067A1.253,1.253,0,0,0,4.052,2.961c.022-.178.045-.378.067-.579C4.185,2,4.274,1.6,4.363,1.2c.067-.2.111-.4.178-.6s.134-.4.223-.6c.089.2.156.4.223.6a6.141,6.141,0,0,1,.178.6,10.068,10.068,0,0,1,.245,1.18c.022.178.045.378.067.579A1.253,1.253,0,0,0,6.567,4.052c.178.022.378.045.579.067.378.067.779.156,1.18.245.2.067.4.111.6.178s.4.134.6.223Z" transform="matrix(1, 0, 0, 1, 129.93, 77.958)" fill="url(#linear-gradient)"/>
    <path id="Ellipse_45" data-name="Ellipse 45" d="M43.143,0A43.143,43.143,0,1,1,0,43.143,43.143,43.143,0,0,1,43.143,0Z" transform="translate(24 8.803)" fill="url(#linear-gradient)"/>
    <path id="Vector-3" data-name="Vector" d="M12.127,6.063c-.266.116-.515.2-.764.282-.266.083-.515.15-.764.216-.5.116-1.013.216-1.512.3l-.748.1A1.571,1.571,0,0,0,6.96,8.339l-.1.748a12.155,12.155,0,0,1-.3,1.512c-.066.266-.133.515-.216.764a6,6,0,0,1-.282.764c-.116-.266-.2-.515-.282-.764-.083-.266-.15-.515-.216-.764-.116-.5-.216-1.013-.3-1.512l-.1-.748A1.571,1.571,0,0,0,3.788,6.96l-.748-.1a12.155,12.155,0,0,1-1.512-.3c-.266-.066-.515-.133-.764-.216A6,6,0,0,1,0,6.063c.266-.116.515-.2.764-.282.266-.083.515-.15.764-.216.5-.116,1.013-.216,1.512-.3l.748-.1A1.571,1.571,0,0,0,5.166,3.788l.1-.748a12.155,12.155,0,0,1,.3-1.512c.066-.266.133-.515.216-.764A6,6,0,0,1,6.063,0c.116.266.2.515.282.764.083.266.15.515.216.764.116.5.216,1.013.3,1.512l.1.748A1.571,1.571,0,0,0,8.339,5.166l.748.1a12.154,12.154,0,0,1,1.512.3c.266.066.515.133.764.216S11.861,5.947,12.127,6.063Z" transform="matrix(1, 0, 0, 1, 0, 6.063)" fill="url(#linear-gradient)"/>
    <path id="Vector-4" data-name="Vector" d="M9.528,4.764c-.2.089-.4.156-.6.223a6.141,6.141,0,0,1-.6.178,10.068,10.068,0,0,1-1.18.245c-.178.022-.378.045-.579.067A1.253,1.253,0,0,0,5.476,6.567c-.022.178-.045.378-.067.579-.067.378-.156.779-.245,1.18-.067.2-.111.4-.178.6s-.134.4-.223.6c-.089-.2-.156-.4-.223-.6a6.142,6.142,0,0,1-.178-.6,10.068,10.068,0,0,1-.245-1.18c-.022-.178-.045-.378-.067-.579A1.253,1.253,0,0,0,2.961,5.476c-.178-.022-.378-.045-.579-.067C2,5.343,1.6,5.254,1.2,5.165,1,5.1.8,5.054.6,4.987S.2,4.853,0,4.764c.2-.089.4-.156.6-.223a6.141,6.141,0,0,1,.6-.178,10.068,10.068,0,0,1,1.18-.245c.178-.022.378-.045.579-.067A1.253,1.253,0,0,0,4.052,2.961c.022-.178.045-.378.067-.579C4.185,2,4.274,1.6,4.363,1.2c.067-.2.111-.4.178-.6s.134-.4.223-.6c.089.2.156.4.223.6a6.141,6.141,0,0,1,.178.6,10.068,10.068,0,0,1,.245,1.18c.022.178.045.378.067.579A1.253,1.253,0,0,0,6.567,4.052c.178.022.378.045.579.067.378.067.779.156,1.18.245.2.067.4.111.6.178s.4.134.6.223Z" transform="matrix(1, 0, 0, 1, 11.261, 0)" fill="url(#linear-gradient)"/>
    <g id="icons8_open_envelope" transform="translate(43.251 30.032)">
      <path id="Path_60777" data-name="Path 60777" d="M42.132,19.227V39.106a3.021,3.021,0,0,1-3.012,3.012H12.012A3.021,3.021,0,0,1,9,39.106V19.227L23.7,7.48a3.032,3.032,0,0,1,3.765,0Z" transform="translate(0.48 1.444)" fill="none"/>
      <g id="Group_32280" data-name="Group 32280" transform="translate(3.748 0.771)">
        <path id="Path_60779" data-name="Path 60779" d="M59.159,45.361a1.045,1.045,0,0,0-1.459-.174L38.9,60.233,27.747,50.782a1.039,1.039,0,1,0-1.286,1.633L44.634,67.808a1.1,1.1,0,0,0,.695.278.985.985,0,0,0,.764-.347,1.039,1.039,0,0,0-.07-1.459L40.5,61.588,58.985,46.82A.987.987,0,0,0,59.159,45.361Z" transform="translate(-19.095 -30.68)" fill="#fff" stroke="#fff" stroke-width="0.1"/>
        <path id="Path_60780" data-name="Path 60780" d="M41.79,46.642H10.517A4.508,4.508,0,0,1,6,42.125V19.191a.988.988,0,0,1,.382-.8L23.339,4.84a4.5,4.5,0,0,1,5.629,0L45.925,18.392a1.039,1.039,0,0,1,.382.8V42.125A4.508,4.508,0,0,1,41.79,46.642ZM8.085,19.678V42.125a2.417,2.417,0,0,0,2.432,2.432H41.79a2.417,2.417,0,0,0,2.432-2.432V19.678L27.683,6.439a2.361,2.361,0,0,0-3.023,0Z" transform="translate(-6 -3.85)" fill="#fff" stroke="#fff" stroke-width="0.1"/>
      </g>
    </g>
  </g>
</svg>
