<svg id="Group_32464" data-name="Group 32464" xmlns="http://www.w3.org/2000/svg" width="37.819" height="37.819" viewBox="0 0 37.819 37.819">
  <circle id="Ellipse_513" data-name="Ellipse 513" cx="18.909" cy="18.909" r="18.909" transform="translate(0 0)" fill="#d7d7d8"/>
  <path id="Icon_awesome-user" data-name="Icon awesome-user" d="M9.27,10.594a5.3,5.3,0,1,0-5.3-5.3A5.3,5.3,0,0,0,9.27,10.594Zm3.708,1.324h-.691a7.2,7.2,0,0,1-6.034,0H5.562A5.563,5.563,0,0,0,0,17.48V19.2a1.987,1.987,0,0,0,1.986,1.986H16.553A1.987,1.987,0,0,0,18.539,19.2V17.48A5.563,5.563,0,0,0,12.978,11.918Z" transform="translate(9.455 7.091)" fill="#707070"/>
</svg>
