<svg xmlns="http://www.w3.org/2000/svg" width="29.179" height="29.179" viewBox="0 0 29.179 29.179">
  <g id="Group_32573" data-name="Group 32573" transform="translate(0 0.001)">
    <g id="Group_16857" data-name="Group 16857" transform="translate(0 -0.001)">
      <circle id="Ellipse_513" data-name="Ellipse 513" cx="14.59" cy="14.59" r="14.59" transform="translate(0)" fill="#5b6ebc"/>
      <path id="icons8_secured_letter_1" d="M21.5,19H7.367a1.368,1.368,0,0,0-.945,2.355l6.7,6.369a1.872,1.872,0,0,0,1.309.523,1.9,1.9,0,0,0,1.309-.523l6.252-5.947v8.244a.906.906,0,0,1-.9.9H7.774a.906.906,0,0,1-.9-.9V24.671a.436.436,0,0,0-.872,0v5.351A1.781,1.781,0,0,0,7.774,31.8H21.107a1.781,1.781,0,0,0,1.774-1.774V20.25A1.411,1.411,0,0,0,21.5,19Zm.334,1.73-6.7,6.369a1,1,0,0,1-1.4,0l-6.7-6.369a.473.473,0,0,1-.16-.364.49.49,0,0,1,.494-.494H21.5a.49.49,0,0,1,.494.494A.521.521,0,0,1,21.834,20.73Z" transform="translate(0.148 -10.807)" fill="#fff" stroke="#fff" stroke-width="0.2"/>
    </g>
  </g>
</svg>
