<svg xmlns="http://www.w3.org/2000/svg" width="19" height="17" viewBox="0 0 19 17">
  <g id="Group_32799" data-name="Group 32799" transform="translate(-63 -194)">
    <rect id="Rectangle_21505" data-name="Rectangle 21505" width="19" height="17" transform="translate(63 194)" fill="none"/>
    <g id="Group_32792" data-name="Group 32792" transform="translate(64.266 198)">
      <path id="icons8_missed_call_2" d="M15.125,7a.412.412,0,0,0,.077.821h3.106l-5.16,5.159L9.166,9.116a.417.417,0,0,0-.59.59l4.278,4.16a.411.411,0,0,0,.59,0L18.9,8.412v3.106a.411.411,0,1,0,.821,0V7.411A.411.411,0,0,0,19.309,7H15.125Z" transform="translate(-5.716 -6.378)" fill="#e54040" stroke="#e54040" stroke-width="0.3"/>
    </g>
  </g>
</svg>
