<svg id="Group_32596" data-name="Group 32596" xmlns="http://www.w3.org/2000/svg" xmlns:xlink="http://www.w3.org/1999/xlink" width="23.623" height="21.864" viewBox="0 0 23.623 21.864">
  <defs>
    <filter id="Ellipse_755" x="1.603" y="1.594" width="20.27" height="20.27" filterUnits="userSpaceOnUse">
      <feOffset dx="2" dy="2" input="SourceAlpha"/>
      <feGaussianBlur stdDeviation="1" result="blur"/>
      <feFlood flood-opacity="0.161"/>
      <feComposite operator="in" in2="blur"/>
      <feComposite in="SourceGraphic"/>
    </filter>
  </defs>
  <path id="Path_61033" data-name="Path 61033" d="M9.643,0a9.643,9.643,0,0,0,0,19.287A9.575,9.575,0,0,0,15.3,17.318c6.029-4.245,8.53-5.89,8.313-7.54-.2-1.547-2.8-3.1-7.108-6.8C14.578,1.322,12.5,0,9.643,0Z" transform="translate(0 0)" fill="#5b6ebc" fill-rule="evenodd"/>
  <g transform="matrix(1, 0, 0, 1, 0, 0)" filter="url(#Ellipse_755)">
    <ellipse id="Ellipse_755-2" data-name="Ellipse 755" cx="7.135" cy="7.135" rx="7.135" ry="7.135" transform="translate(2.6 2.59)" fill="#fff"/>
  </g>
  <ellipse id="Ellipse_756" data-name="Ellipse 756" cx="4.155" cy="4.155" rx="4.155" ry="4.155" transform="translate(5.583 5.575)" fill="#fff"/>
</svg>
