<svg xmlns="http://www.w3.org/2000/svg" xmlns:xlink="http://www.w3.org/1999/xlink" width="139.458" height="96.148" viewBox="0 0 139.458 96.148">
  <defs>
    <linearGradient id="linear-gradient" x1="0.5" x2="0.5" y2="1" gradientUnits="objectBoundingBox">
      <stop offset="0" stop-color="#6bcb8e"/>
      <stop offset="1" stop-color="#16663b"/>
    </linearGradient>
  </defs>
  <g id="icon" transform="translate(0)">
    <path id="Vector" d="M12.127,6.063c-.266.116-.515.2-.764.282-.266.083-.515.15-.764.216-.5.116-1.013.216-1.512.3l-.748.1A1.571,1.571,0,0,0,6.96,8.339l-.1.748a12.155,12.155,0,0,1-.3,1.512c-.066.266-.133.515-.216.764a6,6,0,0,1-.282.764c-.116-.266-.2-.515-.282-.764-.083-.266-.15-.515-.216-.764-.116-.5-.216-1.013-.3-1.512l-.1-.748A1.571,1.571,0,0,0,3.788,6.96l-.748-.1a12.155,12.155,0,0,1-1.512-.3c-.266-.066-.515-.133-.764-.216A6,6,0,0,1,0,6.063c.266-.116.515-.2.764-.282.266-.083.515-.15.764-.216.5-.116,1.013-.216,1.512-.3l.748-.1A1.571,1.571,0,0,0,5.166,3.788l.1-.748a12.155,12.155,0,0,1,.3-1.512c.066-.266.133-.515.216-.764A6,6,0,0,1,6.063,0c.116.266.2.515.282.764.083.266.15.515.216.764.116.5.216,1.013.3,1.512l.1.748A1.571,1.571,0,0,0,8.339,5.166l.748.1a12.154,12.154,0,0,1,1.512.3c.266.066.515.133.764.216S11.861,5.947,12.127,6.063Z" transform="matrix(1, 0, 0, 1, 118.669, 84.021)" fill="url(#linear-gradient)"/>
    <path id="Vector-2" data-name="Vector" d="M9.528,4.764c-.2.089-.4.156-.6.223a6.141,6.141,0,0,1-.6.178,10.068,10.068,0,0,1-1.18.245c-.178.022-.378.045-.579.067A1.253,1.253,0,0,0,5.476,6.567c-.022.178-.045.378-.067.579-.067.378-.156.779-.245,1.18-.067.2-.111.4-.178.6s-.134.4-.223.6c-.089-.2-.156-.4-.223-.6a6.142,6.142,0,0,1-.178-.6,10.068,10.068,0,0,1-.245-1.18c-.022-.178-.045-.378-.067-.579A1.253,1.253,0,0,0,2.961,5.476c-.178-.022-.378-.045-.579-.067C2,5.343,1.6,5.254,1.2,5.165,1,5.1.8,5.054.6,4.987S.2,4.853,0,4.764c.2-.089.4-.156.6-.223a6.141,6.141,0,0,1,.6-.178,10.068,10.068,0,0,1,1.18-.245c.178-.022.378-.045.579-.067A1.253,1.253,0,0,0,4.052,2.961c.022-.178.045-.378.067-.579C4.185,2,4.274,1.6,4.363,1.2c.067-.2.111-.4.178-.6s.134-.4.223-.6c.089.2.156.4.223.6a6.141,6.141,0,0,1,.178.6,10.068,10.068,0,0,1,.245,1.18c.022.178.045.378.067.579A1.253,1.253,0,0,0,6.567,4.052c.178.022.378.045.579.067.378.067.779.156,1.18.245.2.067.4.111.6.178s.4.134.6.223Z" transform="matrix(1, 0, 0, 1, 129.93, 77.958)" fill="url(#linear-gradient)"/>
    <circle id="Ellipse_45" data-name="Ellipse 45" cx="43.143" cy="43.143" r="43.143" transform="translate(24 8.803)" fill="url(#linear-gradient)"/>
    <path id="Vector-3" data-name="Vector" d="M12.127,6.063c-.266.116-.515.2-.764.282-.266.083-.515.15-.764.216-.5.116-1.013.216-1.512.3l-.748.1A1.571,1.571,0,0,0,6.96,8.339l-.1.748a12.155,12.155,0,0,1-.3,1.512c-.066.266-.133.515-.216.764a6,6,0,0,1-.282.764c-.116-.266-.2-.515-.282-.764-.083-.266-.15-.515-.216-.764-.116-.5-.216-1.013-.3-1.512l-.1-.748A1.571,1.571,0,0,0,3.788,6.96l-.748-.1a12.155,12.155,0,0,1-1.512-.3c-.266-.066-.515-.133-.764-.216A6,6,0,0,1,0,6.063c.266-.116.515-.2.764-.282.266-.083.515-.15.764-.216.5-.116,1.013-.216,1.512-.3l.748-.1A1.571,1.571,0,0,0,5.166,3.788l.1-.748a12.155,12.155,0,0,1,.3-1.512c.066-.266.133-.515.216-.764A6,6,0,0,1,6.063,0c.116.266.2.515.282.764.083.266.15.515.216.764.116.5.216,1.013.3,1.512l.1.748A1.571,1.571,0,0,0,8.339,5.166l.748.1a12.154,12.154,0,0,1,1.512.3c.266.066.515.133.764.216S11.861,5.947,12.127,6.063Z" transform="matrix(1, 0, 0, 1, 0, 6.063)" fill="url(#linear-gradient)"/>
    <path id="Vector-4" data-name="Vector" d="M9.528,4.764c-.2.089-.4.156-.6.223a6.141,6.141,0,0,1-.6.178,10.068,10.068,0,0,1-1.18.245c-.178.022-.378.045-.579.067A1.253,1.253,0,0,0,5.476,6.567c-.022.178-.045.378-.067.579-.067.378-.156.779-.245,1.18-.067.2-.111.4-.178.6s-.134.4-.223.6c-.089-.2-.156-.4-.223-.6a6.142,6.142,0,0,1-.178-.6,10.068,10.068,0,0,1-.245-1.18c-.022-.178-.045-.378-.067-.579A1.253,1.253,0,0,0,2.961,5.476c-.178-.022-.378-.045-.579-.067C2,5.343,1.6,5.254,1.2,5.165,1,5.1.8,5.054.6,4.987S.2,4.853,0,4.764c.2-.089.4-.156.6-.223a6.141,6.141,0,0,1,.6-.178,10.068,10.068,0,0,1,1.18-.245c.178-.022.378-.045.579-.067A1.253,1.253,0,0,0,4.052,2.961c.022-.178.045-.378.067-.579C4.185,2,4.274,1.6,4.363,1.2c.067-.2.111-.4.178-.6s.134-.4.223-.6c.089.2.156.4.223.6a6.141,6.141,0,0,1,.178.6,10.068,10.068,0,0,1,.245,1.18c.022.178.045.378.067.579A1.253,1.253,0,0,0,6.567,4.052c.178.022.378.045.579.067.378.067.779.156,1.18.245.2.067.4.111.6.178s.4.134.6.223Z" transform="matrix(1, 0, 0, 1, 11.261, 0)" fill="url(#linear-gradient)"/>
    <g id="icons8_handshake" transform="translate(37.328 23.182)">
      <path id="Path_61037" data-name="Path 61037" d="M11.275,25.778a1.681,1.681,0,1,0,1.681,1.681,1.681,1.681,0,0,0-1.681-1.681Z" transform="translate(-0.322 -1.551)" fill="#fff"/>
      <path id="Path_61038" data-name="Path 61038" d="M52.382,23.82A1.681,1.681,0,1,0,54.062,25.5a1.681,1.681,0,0,0-1.681-1.681Z" transform="translate(-4.004 -1.375)" fill="#fff"/>
      <path id="Path_61039" data-name="Path 61039" d="M52.586,22.294,39.517,9.224a2.594,2.594,0,0,0-3.664,0L33.476,11.6a2.592,2.592,0,0,0-.52,2.9L31.151,16.3l-.544-.544a4.166,4.166,0,0,0-4.063-1.108,2.568,2.568,0,0,0-.689-1.268l-2.376-2.377a2.6,2.6,0,0,0-3.664,0L6.743,24.075a2.6,2.6,0,0,0,.031,3.664L9.18,30.116h0a2.435,2.435,0,0,0,1.8.756,2.466,2.466,0,0,0,.483-.048,4.235,4.235,0,0,0,1.225,2.855l.541.544-.546.544a3.435,3.435,0,0,0,0,4.852,3.4,3.4,0,0,0,2.061.969,3.4,3.4,0,0,0,4.1,4.1,3.394,3.394,0,0,0,3.395,3.064A3.439,3.439,0,0,0,23,47.657a3.412,3.412,0,0,0,5.766,2.107l.549.549a3.4,3.4,0,0,0,5.708-1.487,3.4,3.4,0,0,0,5.405-1.982,3.415,3.415,0,0,0,4.53-4.528,3.4,3.4,0,0,0,1.683-.915,3.436,3.436,0,0,0,0-4.852l-2.327-2.327L46.644,31.9a4.243,4.243,0,0,0,1.233-2.854,2.625,2.625,0,0,0,.5.048,2.58,2.58,0,0,0,1.832-.757l2.376-2.376A2.59,2.59,0,0,0,52.586,22.294ZM10.408,28.828,8.033,26.452a.771.771,0,0,1,0-1.089L21.1,12.3a.772.772,0,0,1,1.089,0l2.375,2.376a.771.771,0,0,1,0,1.089L21.6,18.729h0l-6.535,6.534h0L12.684,27.64h0L11.5,28.827A.77.77,0,0,1,10.408,28.828Zm3.564,7.229a1.609,1.609,0,1,1,0,2.275A1.6,1.6,0,0,1,13.973,36.056Zm2.97,6.435a1.611,1.611,0,0,1,0-2.277l.595-.595.595-.595a1.651,1.651,0,0,1,2.276,0,1.611,1.611,0,0,1,0,2.277l-.595.595-.595.595A1.612,1.612,0,0,1,16.943,42.491Zm4.159,2.97a1.609,1.609,0,1,1,2.276,0A1.612,1.612,0,0,1,21.1,45.461Zm6.435,2.971a1.61,1.61,0,1,1,0-2.277A1.61,1.61,0,0,1,27.536,48.432Zm17.822-8.317a1.611,1.611,0,0,1-2.277,0l-2.97-2.971h0l-4.159-4.159-1.288,1.288,8.317,8.317A1.609,1.609,0,1,1,40.7,44.866l-1.187-1.187L37.734,41.9,32.388,36.55,31.1,37.838l5.346,5.346,1.783,1.783a1.61,1.61,0,0,1-2.277,2.276L34.169,45.46l-5.346-5.346L27.534,41.4l5.346,5.346A1.61,1.61,0,1,1,30.6,49.025l-.9-.9a3.406,3.406,0,0,0-4.076-4.172,3.357,3.357,0,0,0-3.031-3.03,3.41,3.41,0,0,0-4.1-4.1,3.372,3.372,0,0,0-3.247-3.05l-.149-.149.05-.05-1.188-1.188a2.452,2.452,0,0,1,0-3.459L25.854,17.046l0,0a2.509,2.509,0,0,1,3.461,0l.544.544L26.346,21.1h0l-1.782,1.783a4.271,4.271,0,0,0,6.04,6.041l2.92-2.921L45.358,37.839A1.612,1.612,0,0,1,45.358,40.115Zm0-9.506-2.327,2.327-9.5-9.5L29.318,27.64a2.45,2.45,0,0,1-3.464-3.464l3.564-3.564,4.7-4.7L45.362,27.152A2.451,2.451,0,0,1,45.358,30.609ZM51.3,24.67l-2.376,2.376a.77.77,0,0,1-1.089,0L46.65,25.862l0,0-1.783-1.783h0L38.329,17.54h0l-.868-.868-2.7-2.7a.771.771,0,0,1,0-1.089l2.376-2.375a.771.771,0,0,1,1.089,0L51.3,23.582A.772.772,0,0,1,51.3,24.67Z" transform="translate(0)" fill="#fff"/>
    </g>
  </g>
</svg>
