<svg xmlns="http://www.w3.org/2000/svg" width="38" height="34" viewBox="0 0 38 34">
  <g id="Group_32642" data-name="Group 32642" transform="translate(4149 -5138)">
    <path id="icons8_user_location" d="M17.929,2A9.7,9.7,0,0,0,8,11.42c0,2.246,1.463,4.922,3.155,7.562a75.083,75.083,0,0,0,4.9,6.658,2.479,2.479,0,0,0,3.754,0,75.011,75.011,0,0,0,4.9-6.658c1.692-2.64,3.155-5.316,3.155-7.562A9.7,9.7,0,0,0,17.929,2Zm0,1.766A7.855,7.855,0,0,1,26,11.42c0,1.418-1.254,4.1-2.885,6.644a73.739,73.739,0,0,1-4.777,6.494.508.508,0,0,1-.812,0,73.785,73.785,0,0,1-4.777-6.494c-1.63-2.543-2.885-5.227-2.885-6.644A7.855,7.855,0,0,1,17.929,3.766Zm0,3.533a2.421,2.421,0,0,0-2.482,2.355,2.486,2.486,0,0,0,4.965,0A2.421,2.421,0,0,0,17.929,7.3Zm-3.446,5.888a.876.876,0,0,0-.9.852v.768c0,1.309,1.761,2.5,4.344,2.5s4.344-1.192,4.344-2.5v-.768a.876.876,0,0,0-.9-.852Z" transform="translate(-4148 5141)" fill="#1b1d4d"/>
    <rect id="Rectangle_21260" data-name="Rectangle 21260" width="38" height="34" rx="4" transform="translate(-4149 5138)" fill="none"/>
  </g>
</svg>
