<svg xmlns="http://www.w3.org/2000/svg" width="17.354" height="17.354" viewBox="0 0 17.354 17.354">
  <g id="icons8_info_2" transform="translate(0 0)">
    <path id="Path_61223" data-name="Path 61223" d="M25.254,16.577a8.677,8.677,0,1,0-8.677,8.677A8.678,8.678,0,0,0,25.254,16.577Z" transform="translate(-7.9 -7.9)" fill="#0c4fb2"/>
    <path id="Path_61224" data-name="Path 61224" d="M187.425,87.16a.175.175,0,0,0-.22-.059,20.865,20.865,0,0,1-2.028.874.079.079,0,0,1-.021-.024.237.237,0,0,1-.038-.14,25.855,25.855,0,0,1,1.091-4.4,15.187,15.187,0,0,0,.682-2.606.66.66,0,0,0-.241-.528.954.954,0,0,0-.619-.185,3.209,3.209,0,0,0-1.542.507,8.234,8.234,0,0,0-1.938,1.661.174.174,0,0,0-.014.217.179.179,0,0,0,.21.063c.245-.1,1.483-.609,1.665-.72a.776.776,0,0,1,.381-.14h.01c0,.007,0,.017,0,.031a1.244,1.244,0,0,1-.066.374,31.085,31.085,0,0,0-1.567,6.4,1.067,1.067,0,0,0,.259.752.917.917,0,0,0,.7.283,2.445,2.445,0,0,0,1.158-.4,13.705,13.705,0,0,0,2.112-1.738A.18.18,0,0,0,187.425,87.16Zm-.035-9.894a.883.883,0,0,0-.654-.266,1.117,1.117,0,0,0-.846.385,1.3,1.3,0,0,0-.346.913.978.978,0,0,0,.255.692.853.853,0,0,0,.647.273,1.111,1.111,0,0,0,.839-.406,1.334,1.334,0,0,0,.364-.923A.918.918,0,0,0,187.39,77.266Z" transform="translate(-176.398 -74.584)" fill="#fff"/>
  </g>
</svg>
