<svg id="Group_19152" data-name="Group 19152" xmlns="http://www.w3.org/2000/svg" width="197.05" height="48.861" viewBox="0 0 197.05 48.861">
  <path id="Path_13100" data-name="Path 13100" d="M73.139,81.469l-2.406-4.7H52.882l-2.291,4.7H37.963L61.921,32.731,85.65,81.469ZM65.151,65.378,61.8,58.8l-3.166,6.576Z" transform="translate(-37.963 -32.696)" fill="#fff"/>
  <rect id="Rectangle_6670" data-name="Rectangle 6670" width="2.291" height="48.842" transform="translate(58.865 0.019)" fill="#fff"/>
  <path id="Path_13101" data-name="Path 13101" d="M154.97,60.541h-5.135l-2.214-4.53H135.137l-2.249,4.53h-5.168l13.691-27.853Zm-17.551-9.2h7.92l-3.926-8.088Z" transform="translate(-55.406 -32.688)" fill="#fff"/>
  <path id="Path_13102" data-name="Path 13102" d="M164.415,33.937h7.82a7.507,7.507,0,0,1,5.537,2.349,7.786,7.786,0,0,1,2.315,5.671,6.429,6.429,0,0,1-.587,2.651,6.923,6.923,0,0,1-1.494,2.182,5.428,5.428,0,0,1,1.963,2.634,9.417,9.417,0,0,1,.654,3.34,7.815,7.815,0,0,1-2.3,5.67,7.452,7.452,0,0,1-5.52,2.349h-8.39Zm4.666,4.665v6.343h4.262a1.772,1.772,0,0,0,1.443-.973,3.631,3.631,0,0,0,.637-2.014,3.384,3.384,0,0,0-.886-2.4,2.994,2.994,0,0,0-2.3-.956h-3.154Zm0,11.006v6.511h3.725a2.934,2.934,0,0,0,2.266-.974,3.4,3.4,0,0,0,.886-2.381,4.121,4.121,0,0,0-.62-2.095q-.621-1.057-1.426-1.058Z" transform="translate(-62.537 -32.931)" fill="#fff"/>
  <path id="Path_13103" data-name="Path 13103" d="M212.243,60.541h-5.136l-2.214-4.53H192.411l-2.249,4.53h-5.168l13.692-27.853Zm-17.552-9.2h7.92l-3.926-8.088Z" transform="translate(-66.536 -32.688)" fill="#fff"/>
  <path id="Path_13104" data-name="Path 13104" d="M239.356,54.064l3.255,3.255a14.428,14.428,0,1,1,0-20.4l-3.255,3.255a9.6,9.6,0,0,0-6.946-2.852,9.8,9.8,0,1,0,0,19.6,9.6,9.6,0,0,0,6.945-2.853" transform="translate(-72.946 -32.688)" fill="#fff"/>
  <path id="Path_13105" data-name="Path 13105" d="M275.97,60.541h-5.135l-2.214-4.53H256.133l-2.249,4.53h-5.167l13.691-27.853Zm-17.552-9.2h7.92l-3.926-8.088Z" transform="translate(-78.919 -32.688)" fill="#fff"/>
  <path id="Path_13106" data-name="Path 13106" d="M127.818,77.228h3.289a6.066,6.066,0,1,1,0,12.132h-3.29V77.228Zm2.108,2.108v7.917h1.181a3.958,3.958,0,1,0,0-7.917h-1.183Z" transform="translate(-55.424 -41.344)" fill="#fff"/>
  <rect id="Rectangle_6671" data-name="Rectangle 6671" width="2.108" height="12.132" transform="translate(83.175 35.884)" fill="#fff"/>
  <path id="Path_13107" data-name="Path 13107" d="M152.069,83.639H158a6.682,6.682,0,0,1-1.772,4.337,5.446,5.446,0,0,1-4.155,1.729,6.521,6.521,0,1,1,4.488-11.252l-1.486,1.471a4.431,4.431,0,1,0-3,7.688,3.441,3.441,0,0,0,2.745-1.2,4.034,4.034,0,0,0,.483-.682h-3.23Z" transform="translate(-58.87 -41.234)" fill="#fff"/>
  <rect id="Rectangle_6672" data-name="Rectangle 6672" width="2.108" height="12.132" transform="translate(100.311 35.884)" fill="#fff"/>
  <path id="Path_13108" data-name="Path 13108" d="M173.7,79.336h-2.411V89.36h-2.095V79.336H166.78V77.228H173.7Z" transform="translate(-62.996 -41.344)" fill="#fff"/>
  <path id="Path_13109" data-name="Path 13109" d="M188.354,89.25h-2.32l-1-2.047h-5.64l-1.017,2.047h-2.336l6.188-12.586ZM180.423,85.1H184L182.23,81.44Z" transform="translate(-64.795 -41.234)" fill="#fff"/>
  <path id="Path_13110" data-name="Path 13110" d="M194.75,87.252h5.065V89.36h-7.17V77.228h2.108Z" transform="translate(-68.023 -41.344)" fill="#fff"/>
  <path id="Path_13111" data-name="Path 13111" d="M219.976,89.25h-2.32l-1-2.047h-5.64L210,89.25h-2.336l6.188-12.586ZM212.043,85.1h3.579L213.85,81.44Z" transform="translate(-70.941 -41.234)" fill="#fff"/>
  <rect id="Rectangle_6673" data-name="Rectangle 6673" width="2.108" height="12.132" transform="translate(150.127 35.884)" fill="#fff"/>
  <path id="Path_13112" data-name="Path 13112" d="M244.1,89.25h-2.168l-1.592-6.794-4.048,7.251-4.049-7.251-1.593,6.794H228.48l3-12.587,4.807,8.69,4.882-8.69Z" transform="translate(-74.987 -41.234)" fill="#fff"/>
</svg>
