<svg xmlns="http://www.w3.org/2000/svg" xmlns:xlink="http://www.w3.org/1999/xlink" width="369" height="578" viewBox="0 0 369 578">
  <defs>
    <clipPath id="clip-path">
      <rect id="Base" width="369" height="578" transform="translate(0 0.016)" fill="#794df6"/>
    </clipPath>
    <linearGradient id="linear-gradient" x1="0.785" y1="0.438" x2="-0.216" y2="0.438" gradientUnits="objectBoundingBox">
      <stop offset="0.129"/>
      <stop offset="0.693" stop-color="#4d4d4d"/>
    </linearGradient>
    <linearGradient id="linear-gradient-2" x1="0.77" y1="0.434" x2="-0.23" y2="0.434" xlink:href="#linear-gradient"/>
    <linearGradient id="linear-gradient-3" x1="0.753" y1="0.429" x2="-0.247" y2="0.429" xlink:href="#linear-gradient"/>
    <linearGradient id="linear-gradient-4" x1="0.734" y1="0.424" x2="-0.266" y2="0.424" xlink:href="#linear-gradient"/>
    <linearGradient id="linear-gradient-5" x1="0.712" y1="0.417" x2="-0.289" y2="0.417" xlink:href="#linear-gradient"/>
    <linearGradient id="linear-gradient-6" x1="0.685" y1="0.409" x2="-0.316" y2="0.409" xlink:href="#linear-gradient"/>
    <linearGradient id="linear-gradient-7" x1="0.653" y1="0.4" x2="-0.348" y2="0.4" xlink:href="#linear-gradient"/>
    <linearGradient id="linear-gradient-8" x1="0.613" y1="0.389" x2="-0.387" y2="0.389" xlink:href="#linear-gradient"/>
    <linearGradient id="linear-gradient-9" x1="0.564" y1="0.375" x2="-0.437" y2="0.375" xlink:href="#linear-gradient"/>
    <linearGradient id="linear-gradient-10" x1="0.499" y1="0.356" x2="-0.501" y2="0.356" xlink:href="#linear-gradient"/>
    <linearGradient id="linear-gradient-11" x1="0.413" y1="0.331" x2="-0.587" y2="0.331" xlink:href="#linear-gradient"/>
    <linearGradient id="linear-gradient-12" x1="0.291" y1="0.296" x2="-0.71" y2="0.296" xlink:href="#linear-gradient"/>
    <linearGradient id="linear-gradient-13" x1="1.172" y1="1.361" x2="0.172" y2="1.361" gradientUnits="objectBoundingBox">
      <stop offset="0"/>
      <stop offset="1" stop-color="#4d4d4d"/>
    </linearGradient>
    <linearGradient id="linear-gradient-14" x1="1.183" y1="1.419" x2="0.183" y2="1.419" xlink:href="#linear-gradient-13"/>
    <linearGradient id="linear-gradient-15" x1="1.197" y1="1.486" x2="0.197" y2="1.486" xlink:href="#linear-gradient-13"/>
    <linearGradient id="linear-gradient-16" x1="1.212" y1="1.563" x2="0.212" y2="1.563" xlink:href="#linear-gradient-13"/>
    <linearGradient id="linear-gradient-17" x1="1.23" y1="1.653" x2="0.23" y2="1.653" xlink:href="#linear-gradient-13"/>
    <linearGradient id="linear-gradient-18" x1="1.251" y1="1.759" x2="0.251" y2="1.759" xlink:href="#linear-gradient-13"/>
    <linearGradient id="linear-gradient-19" x1="1.277" y1="1.888" x2="0.277" y2="1.888" xlink:href="#linear-gradient-13"/>
    <linearGradient id="linear-gradient-20" x1="1.308" y1="2.046" x2="0.308" y2="2.046" xlink:href="#linear-gradient-13"/>
    <linearGradient id="linear-gradient-21" x1="1.348" y1="2.244" x2="0.348" y2="2.244" xlink:href="#linear-gradient-13"/>
    <linearGradient id="linear-gradient-22" x1="1.399" y1="2.5" x2="0.399" y2="2.5" xlink:href="#linear-gradient-13"/>
    <linearGradient id="linear-gradient-23" x1="1.468" y1="2.845" x2="0.468" y2="2.845" xlink:href="#linear-gradient-13"/>
    <linearGradient id="linear-gradient-24" x1="1.565" y1="3.334" x2="0.565" y2="3.334" xlink:href="#linear-gradient-13"/>
    <linearGradient id="linear-gradient-25" x1="2.627" y1="0.443" x2="1.627" y2="0.443" gradientUnits="objectBoundingBox">
      <stop offset="0"/>
      <stop offset="0.621" stop-color="#4d4d4d"/>
    </linearGradient>
    <linearGradient id="linear-gradient-26" x1="2.737" y1="0.439" x2="1.737" y2="0.439" xlink:href="#linear-gradient-25"/>
    <linearGradient id="linear-gradient-27" x1="2.863" y1="0.434" x2="1.863" y2="0.434" xlink:href="#linear-gradient-25"/>
    <linearGradient id="linear-gradient-28" x1="3.008" y1="0.429" x2="2.008" y2="0.429" xlink:href="#linear-gradient-25"/>
    <linearGradient id="linear-gradient-29" x1="3.178" y1="0.423" x2="2.178" y2="0.423" xlink:href="#linear-gradient-25"/>
    <linearGradient id="linear-gradient-30" x1="3.38" y1="0.416" x2="2.38" y2="0.416" xlink:href="#linear-gradient-25"/>
    <linearGradient id="linear-gradient-31" x1="3.623" y1="0.408" x2="2.623" y2="0.408" xlink:href="#linear-gradient-25"/>
    <linearGradient id="linear-gradient-32" x1="3.921" y1="0.397" x2="2.921" y2="0.397" xlink:href="#linear-gradient-25"/>
    <linearGradient id="linear-gradient-33" x1="4.296" y1="0.384" x2="3.296" y2="0.384" xlink:href="#linear-gradient-25"/>
    <linearGradient id="linear-gradient-34" x1="4.781" y1="0.367" x2="3.781" y2="0.367" xlink:href="#linear-gradient-25"/>
    <linearGradient id="linear-gradient-35" x1="5.433" y1="0.344" x2="4.433" y2="0.344" xlink:href="#linear-gradient-25"/>
    <linearGradient id="linear-gradient-36" x1="6.356" y1="0.311" x2="5.356" y2="0.311" xlink:href="#linear-gradient-25"/>
    <linearGradient id="linear-gradient-37" x1="0.316" y1="0.827" x2="-0.684" y2="0.827" xlink:href="#linear-gradient-13"/>
    <linearGradient id="linear-gradient-38" x1="0.27" y1="0.849" x2="-0.73" y2="0.849" xlink:href="#linear-gradient-13"/>
    <linearGradient id="linear-gradient-39" x1="0.217" y1="0.874" x2="-0.783" y2="0.874" xlink:href="#linear-gradient-13"/>
    <linearGradient id="linear-gradient-40" x1="0.156" y1="0.903" x2="-0.844" y2="0.903" xlink:href="#linear-gradient-13"/>
    <linearGradient id="linear-gradient-41" x1="0.084" y1="0.938" x2="-0.916" y2="0.938" xlink:href="#linear-gradient-13"/>
    <linearGradient id="linear-gradient-42" x1="-0.001" y1="0.978" x2="-1.001" y2="0.978" xlink:href="#linear-gradient-13"/>
    <linearGradient id="linear-gradient-43" x1="-0.103" y1="1.027" x2="-1.103" y2="1.027" xlink:href="#linear-gradient-13"/>
    <linearGradient id="linear-gradient-44" x1="-0.228" y1="1.087" x2="-1.228" y2="1.087" xlink:href="#linear-gradient-13"/>
    <linearGradient id="linear-gradient-45" x1="-0.386" y1="1.162" x2="-1.386" y2="1.162" xlink:href="#linear-gradient-13"/>
    <linearGradient id="linear-gradient-46" x1="-0.589" y1="1.259" x2="-1.589" y2="1.259" xlink:href="#linear-gradient-13"/>
    <linearGradient id="linear-gradient-47" x1="-0.864" y1="1.39" x2="-1.864" y2="1.39" xlink:href="#linear-gradient-13"/>
    <linearGradient id="linear-gradient-48" x1="-1.252" y1="1.576" x2="-2.252" y2="1.576" xlink:href="#linear-gradient-13"/>
    <linearGradient id="linear-gradient-49" x1="26.707" y1="-30.183" x2="25.707" y2="-30.183" xlink:href="#linear-gradient-13"/>
  </defs>
  <g id="Mask_Group_259" data-name="Mask Group 259" transform="translate(0 -0.016)" clip-path="url(#clip-path)">
    <g id="Group_32249" data-name="Group 32249" transform="translate(192.564 59.99)">
      <g id="Group_32245" data-name="Group 32245" transform="translate(0 140.262)">
        <g id="Group_32244" data-name="Group 32244" style="mix-blend-mode: color-dodge;isolation: isolate">
          <path id="Path_60771" data-name="Path 60771" d="M1231.423,427.614c65.6-62.892,172.336-62.892,237.934,0s65.6,165.222,0,228.113-172.335,62.892-237.934,0S1165.825,490.505,1231.423,427.614Zm237.252,227.46c65.223-62.53,65.223-164.276,0-226.806s-171.348-62.531-236.571,0-65.222,164.276,0,226.806S1403.453,717.6,1468.676,655.074Z" transform="translate(-1182.225 -380.445)" fill="url(#linear-gradient)"/>
          <path id="Path_60772" data-name="Path 60772" d="M1246.8,443.115c61.447-58.911,161.427-58.911,222.873,0s61.446,154.764,0,213.674-161.427,58.91-222.873,0S1185.35,502.025,1246.8,443.115Zm222.191,213.021c61.07-58.55,61.07-153.817,0-212.367s-160.439-58.55-221.51,0-61.07,153.817,0,212.367S1407.916,714.685,1468.987,656.135Z" transform="translate(-1190.067 -388.727)" fill="url(#linear-gradient-2)"/>
          <path id="Path_60773" data-name="Path 60773" d="M1262.168,458.616c57.294-54.93,150.519-54.93,207.813,0s57.294,144.306,0,199.236-150.518,54.929-207.813,0S1204.874,513.545,1262.168,458.616ZM1469.3,657.2c56.918-54.57,56.918-143.359,0-197.928s-149.531-54.57-206.449,0-56.918,143.359,0,197.928S1412.381,711.767,1469.3,657.2Z" transform="translate(-1197.909 -397.008)" fill="url(#linear-gradient-3)"/>
          <path id="Path_60774" data-name="Path 60774" d="M1277.54,474.116c53.142-50.948,139.61-50.948,192.752,0s53.142,133.848,0,184.8-139.61,50.948-192.751,0S1224.4,525.065,1277.54,474.116Zm192.07,184.143c52.766-50.588,52.766-132.9,0-183.49s-138.622-50.588-191.388,0-52.765,132.9,0,183.489S1416.844,708.847,1469.61,658.259Z" transform="translate(-1205.75 -405.289)" fill="url(#linear-gradient-4)"/>
          <path id="Path_60775" data-name="Path 60775" d="M1292.913,489.617c48.99-46.967,128.7-46.967,177.691,0s48.99,123.39,0,170.358-128.7,46.968-177.691,0S1243.923,536.584,1292.913,489.617Zm177.009,169.7c48.614-46.608,48.614-122.443,0-169.051s-127.714-46.608-176.327,0-48.614,122.443,0,169.051S1421.308,705.928,1469.922,659.321Z" transform="translate(-1213.592 -413.57)" fill="url(#linear-gradient-5)"/>
          <path id="Path_60776" data-name="Path 60776" d="M1308.284,505.117c44.837-42.987,117.793-42.987,162.631,0s44.837,112.932,0,155.919-117.793,42.986-162.63,0S1263.447,548.1,1308.284,505.117Zm161.949,155.265c44.461-42.627,44.461-111.985,0-154.612s-116.807-42.626-161.267,0-44.461,111.985,0,154.611S1425.771,703.009,1470.233,660.383Z" transform="translate(-1221.434 -421.851)" fill="url(#linear-gradient-6)"/>
          <path id="Path_60777" data-name="Path 60777" d="M1323.657,520.619c40.686-39.006,106.885-39.006,147.57,0s40.685,102.473,0,141.479-106.884,39.006-147.57,0S1282.972,559.625,1323.657,520.619Zm146.888,140.825c40.309-38.645,40.309-101.526,0-140.171s-105.9-38.646-146.206,0-40.309,101.526,0,140.171S1430.236,700.089,1470.545,661.444Z" transform="translate(-1229.277 -430.133)" fill="url(#linear-gradient-7)"/>
          <path id="Path_60778" data-name="Path 60778" d="M1339.029,536.12c36.533-35.025,95.977-35.025,132.509,0s36.533,92.015,0,127.039-95.976,35.025-132.509,0S1302.5,571.144,1339.029,536.12Zm131.828,126.386c36.157-34.664,36.157-91.068,0-125.732s-94.989-34.665-131.146,0-36.156,91.068,0,125.732S1434.7,697.17,1470.856,662.506Z" transform="translate(-1237.118 -438.414)" fill="url(#linear-gradient-8)"/>
          <path id="Path_60779" data-name="Path 60779" d="M1354.4,551.62c32.381-31.044,85.068-31.044,117.448,0a77.4,77.4,0,0,1,0,112.6c-32.38,31.044-85.067,31.044-117.448,0A77.4,77.4,0,0,1,1354.4,551.62Zm116.766,111.947a76.5,76.5,0,0,0,0-111.293c-32.005-30.684-84.08-30.684-116.085,0a76.5,76.5,0,0,0,0,111.293C1387.088,694.251,1439.163,694.251,1471.168,663.567Z" transform="translate(-1244.96 -446.695)" fill="url(#linear-gradient-9)"/>
          <path id="Path_60780" data-name="Path 60780" d="M1369.773,567.12c28.229-27.063,74.16-27.063,102.388,0a67.477,67.477,0,0,1,0,98.162c-28.228,27.063-74.159,27.063-102.388,0A67.478,67.478,0,0,1,1369.773,567.12Zm101.706,97.509a66.578,66.578,0,0,0,0-96.855c-27.852-26.7-73.171-26.7-101.024,0a66.579,66.579,0,0,0,0,96.855C1398.307,691.332,1443.627,691.332,1471.479,664.629Z" transform="translate(-1252.801 -454.976)" fill="url(#linear-gradient-10)"/>
          <path id="Path_60781" data-name="Path 60781" d="M1385.145,582.621c24.076-23.082,63.251-23.082,87.327,0a57.552,57.552,0,0,1,0,83.723c-24.076,23.082-63.251,23.082-87.327,0A57.553,57.553,0,0,1,1385.145,582.621Zm86.645,83.07a56.654,56.654,0,0,0,0-82.416c-23.7-22.722-62.264-22.722-85.964,0a56.654,56.654,0,0,0,0,82.416C1409.527,688.413,1448.09,688.413,1471.791,665.691Z" transform="translate(-1260.643 -463.257)" fill="url(#linear-gradient-11)"/>
          <path id="Path_60782" data-name="Path 60782" d="M1400.519,598.122c19.924-19.1,52.343-19.1,72.266,0a47.627,47.627,0,0,1,0,69.284c-19.923,19.1-52.342,19.1-72.266,0A47.627,47.627,0,0,1,1400.519,598.122Zm71.584,68.63a46.728,46.728,0,0,0,0-67.977c-19.548-18.741-51.355-18.741-70.9,0a46.728,46.728,0,0,0,0,67.977C1420.748,685.494,1452.555,685.494,1472.1,666.752Z" transform="translate(-1268.486 -471.539)" fill="url(#linear-gradient-12)"/>
        </g>
      </g>
      <g id="Group_32246" data-name="Group 32246" transform="translate(283.039)" style="mix-blend-mode: color-dodge;isolation: isolate">
        <path id="Path_60783" data-name="Path 60783" d="M908.145,227.564c0-55.8,47.351-101.2,105.555-101.2s105.554,45.4,105.554,101.2-47.352,101.2-105.554,101.2S908.145,283.365,908.145,227.564Zm210.5,0c0-55.481-47.08-100.618-104.949-100.618S908.75,172.083,908.75,227.564s47.08,100.618,104.95,100.618S1118.649,283.045,1118.649,227.564Z" transform="translate(-908.145 -126.366)" fill="url(#linear-gradient-13)"/>
        <path id="Path_60784" data-name="Path 60784" d="M919.749,232.762c0-52.269,44.354-94.792,98.873-94.792s98.873,42.523,98.873,94.792-44.355,94.792-98.873,94.792S919.749,285.031,919.749,232.762Zm197.141,0c0-51.949-44.083-94.213-98.268-94.213s-98.268,42.263-98.268,94.213,44.083,94.212,98.268,94.212S1116.89,284.711,1116.89,232.762Z" transform="translate(-913.068 -131.564)" fill="url(#linear-gradient-14)"/>
        <path id="Path_60785" data-name="Path 60785" d="M931.352,237.96c0-48.737,41.357-88.387,92.192-88.387s92.192,39.65,92.192,88.387-41.358,88.387-92.192,88.387S931.352,286.7,931.352,237.96Zm183.778,0c0-48.417-41.086-87.807-91.587-87.807s-91.587,39.39-91.587,87.807,41.086,87.807,91.587,87.807S1115.13,286.377,1115.13,237.96Z" transform="translate(-917.989 -136.762)" fill="url(#linear-gradient-15)"/>
        <path id="Path_60786" data-name="Path 60786" d="M942.956,243.158c0-45.2,38.36-81.981,85.511-81.981s85.51,36.776,85.51,81.981-38.36,81.981-85.51,81.981S942.956,288.362,942.956,243.158Zm170.417,0c0-44.885-38.089-81.4-84.906-81.4s-84.906,36.517-84.906,81.4,38.088,81.4,84.906,81.4S1113.373,288.043,1113.373,243.158Z" transform="translate(-922.912 -141.96)" fill="url(#linear-gradient-16)"/>
        <path id="Path_60787" data-name="Path 60787" d="M954.559,248.356c0-41.673,35.363-75.576,78.829-75.576s78.829,33.9,78.829,75.576-35.363,75.576-78.829,75.576S954.559,290.029,954.559,248.356Zm157.053,0c0-41.353-35.091-75-78.224-75s-78.224,33.643-78.224,75,35.091,75,78.224,75S1111.612,289.709,1111.612,248.356Z" transform="translate(-927.834 -147.158)" fill="url(#linear-gradient-17)"/>
        <path id="Path_60788" data-name="Path 60788" d="M966.163,253.554c0-38.14,32.366-69.17,72.148-69.17s72.147,31.03,72.147,69.17-32.365,69.17-72.147,69.17S966.163,291.694,966.163,253.554Zm143.691,0c0-37.821-32.094-68.59-71.543-68.59s-71.543,30.77-71.543,68.59,32.094,68.59,71.543,68.59S1109.854,291.375,1109.854,253.554Z" transform="translate(-932.757 -152.356)" fill="url(#linear-gradient-18)"/>
        <path id="Path_60789" data-name="Path 60789" d="M977.767,258.752c0-34.608,29.368-62.764,65.466-62.764s65.466,28.156,65.466,62.764-29.368,62.765-65.466,62.765S977.767,293.36,977.767,258.752Zm130.328,0c0-34.288-29.1-62.184-64.862-62.184s-64.861,27.9-64.861,62.184,29.1,62.184,64.861,62.184S1108.1,293.041,1108.1,258.752Z" transform="translate(-937.679 -157.554)" fill="url(#linear-gradient-19)"/>
        <path id="Path_60790" data-name="Path 60790" d="M989.37,263.95c0-31.076,26.37-56.359,58.785-56.359s58.785,25.283,58.785,56.359-26.371,56.359-58.785,56.359S989.37,295.026,989.37,263.95Zm116.965,0c0-30.756-26.1-55.778-58.18-55.778s-58.18,25.022-58.18,55.778,26.1,55.779,58.18,55.779S1106.335,294.706,1106.335,263.95Z" transform="translate(-942.6 -162.752)" fill="url(#linear-gradient-20)"/>
        <path id="Path_60791" data-name="Path 60791" d="M1000.974,269.148c0-27.544,23.374-49.953,52.1-49.953s52.1,22.409,52.1,49.953-23.374,49.953-52.1,49.953S1000.974,296.692,1000.974,269.148Zm103.6,0c0-27.224-23.1-49.373-51.5-49.373s-51.5,22.149-51.5,49.373,23.1,49.373,51.5,49.373S1104.576,296.372,1104.576,269.148Z" transform="translate(-947.523 -167.95)" fill="url(#linear-gradient-21)"/>
        <path id="Path_60792" data-name="Path 60792" d="M1012.577,274.346c0-24.012,20.376-43.548,45.422-43.548s45.422,19.536,45.422,43.548-20.377,43.548-45.422,43.548S1012.577,298.358,1012.577,274.346Zm90.239,0c0-23.692-20.1-42.967-44.817-42.967s-44.818,19.275-44.818,42.967,20.1,42.968,44.818,42.968S1102.816,298.038,1102.816,274.346Z" transform="translate(-952.445 -173.148)" fill="url(#linear-gradient-22)"/>
        <path id="Path_60793" data-name="Path 60793" d="M1024.181,279.544c0-20.48,17.379-37.142,38.741-37.142s38.741,16.662,38.741,37.142-17.379,37.142-38.741,37.142S1024.181,300.024,1024.181,279.544Zm76.877,0c0-20.16-17.108-36.562-38.136-36.562s-38.136,16.4-38.136,36.562,17.108,36.562,38.136,36.562S1101.058,299.7,1101.058,279.544Z" transform="translate(-957.368 -178.346)" fill="url(#linear-gradient-23)"/>
        <path id="Path_60794" data-name="Path 60794" d="M1035.784,284.741c0-16.948,14.382-30.736,32.06-30.736s32.059,13.788,32.059,30.736-14.382,30.736-32.059,30.736S1035.784,301.69,1035.784,284.741Zm63.514,0c0-16.628-14.11-30.156-31.454-30.156s-31.455,13.528-31.455,30.156S1050.5,314.9,1067.844,314.9,1099.3,301.37,1099.3,284.741Z" transform="translate(-962.289 -183.543)" fill="url(#linear-gradient-24)"/>
      </g>
      <g id="Group_32247" data-name="Group 32247" transform="translate(91.745)" style="mix-blend-mode: color-dodge;isolation: isolate">
        <path id="Path_60795" data-name="Path 60795" d="M1317,206.412c0-44.137,37.454-80.046,83.492-80.046s83.491,35.908,83.491,80.046-37.454,80.046-83.491,80.046S1317,250.549,1317,206.412Zm166.5,0c0-43.884-37.239-79.587-83.013-79.587s-83.013,35.7-83.013,79.587S1354.718,286,1400.492,286,1483.5,250.3,1483.5,206.412Z" transform="translate(-1317 -126.366)" fill="url(#linear-gradient-25)"/>
        <path id="Path_60796" data-name="Path 60796" d="M1326.178,210.523c0-41.343,35.083-74.979,78.207-74.979s78.207,33.636,78.207,74.979-35.084,74.979-78.207,74.979S1326.178,251.866,1326.178,210.523Zm155.935,0c0-41.09-34.869-74.52-77.728-74.52s-77.728,33.43-77.728,74.52,34.869,74.52,77.728,74.52S1482.113,251.613,1482.113,210.523Z" transform="translate(-1320.893 -130.477)" fill="url(#linear-gradient-26)"/>
        <path id="Path_60797" data-name="Path 60797" d="M1335.356,214.634c0-38.549,32.713-69.912,72.922-69.912s72.922,31.363,72.922,69.912-32.713,69.912-72.922,69.912S1335.356,253.184,1335.356,214.634Zm145.366,0c0-38.3-32.5-69.454-72.444-69.454s-72.443,31.157-72.443,69.454,32.5,69.454,72.443,69.454S1480.722,252.931,1480.722,214.634Z" transform="translate(-1324.786 -134.589)" fill="url(#linear-gradient-27)"/>
        <path id="Path_60798" data-name="Path 60798" d="M1344.534,218.746c0-35.756,30.342-64.845,67.638-64.845s67.637,29.089,67.637,64.845-30.342,64.845-67.637,64.845S1344.534,254.5,1344.534,218.746Zm134.8,0c0-35.5-30.127-64.386-67.159-64.386s-67.159,28.884-67.159,64.386,30.127,64.387,67.159,64.387S1479.33,254.249,1479.33,218.746Z" transform="translate(-1328.68 -138.701)" fill="url(#linear-gradient-28)"/>
        <path id="Path_60799" data-name="Path 60799" d="M1353.712,222.858c0-32.962,27.971-59.779,62.352-59.779s62.352,26.816,62.352,59.779-27.971,59.779-62.352,59.779S1353.712,255.82,1353.712,222.858Zm124.226,0c0-32.709-27.757-59.32-61.874-59.32s-61.874,26.61-61.874,59.32,27.756,59.32,61.874,59.32S1477.938,255.567,1477.938,222.858Z" transform="translate(-1332.572 -142.812)" fill="url(#linear-gradient-29)"/>
        <path id="Path_60800" data-name="Path 60800" d="M1362.891,226.969c0-30.168,25.6-54.712,57.067-54.712s57.068,24.544,57.068,54.712-25.6,54.712-57.068,54.712S1362.891,257.137,1362.891,226.969Zm113.656,0c0-29.916-25.385-54.253-56.589-54.253s-56.589,24.338-56.589,54.253,25.385,54.253,56.589,54.253S1476.547,256.884,1476.547,226.969Z" transform="translate(-1336.467 -146.923)" fill="url(#linear-gradient-30)"/>
        <path id="Path_60801" data-name="Path 60801" d="M1372.069,231.08c0-27.374,23.229-49.645,51.782-49.645s51.783,22.271,51.783,49.645-23.229,49.645-51.783,49.645S1372.069,258.455,1372.069,231.08Zm103.087,0c0-27.121-23.015-49.187-51.3-49.187s-51.3,22.066-51.3,49.187,23.015,49.187,51.3,49.187S1475.155,258.2,1475.155,231.08Z" transform="translate(-1340.36 -151.035)" fill="url(#linear-gradient-31)"/>
        <path id="Path_60802" data-name="Path 60802" d="M1381.247,235.192c0-24.581,20.859-44.578,46.5-44.578s46.5,20,46.5,44.578-20.859,44.579-46.5,44.579S1381.247,259.773,1381.247,235.192Zm92.517,0c0-24.328-20.644-44.12-46.019-44.12s-46.019,19.792-46.019,44.12,20.644,44.12,46.019,44.12S1473.764,259.52,1473.764,235.192Z" transform="translate(-1344.253 -155.147)" fill="url(#linear-gradient-32)"/>
        <path id="Path_60803" data-name="Path 60803" d="M1390.425,239.3c0-21.787,18.488-39.512,41.213-39.512s41.213,17.725,41.213,39.512-18.488,39.512-41.213,39.512S1390.425,261.09,1390.425,239.3Zm81.948,0c0-21.534-18.274-39.053-40.735-39.053S1390.9,217.77,1390.9,239.3s18.274,39.053,40.735,39.053S1472.372,260.838,1472.372,239.3Z" transform="translate(-1348.146 -159.258)" fill="url(#linear-gradient-33)"/>
        <path id="Path_60804" data-name="Path 60804" d="M1399.6,243.415c0-18.993,16.117-34.445,35.928-34.445s35.928,15.452,35.928,34.445-16.117,34.446-35.928,34.446S1399.6,262.408,1399.6,243.415Zm71.377,0c0-18.74-15.9-33.986-35.449-33.986s-35.449,15.246-35.449,33.986,15.9,33.987,35.449,33.987S1470.981,262.156,1470.981,243.415Z" transform="translate(-1352.041 -163.369)" fill="url(#linear-gradient-34)"/>
        <path id="Path_60805" data-name="Path 60805" d="M1408.782,247.526c0-16.2,13.746-29.378,30.643-29.378s30.643,13.179,30.643,29.378-13.746,29.378-30.643,29.378S1408.782,263.726,1408.782,247.526Zm60.808,0c0-15.946-13.532-28.92-30.164-28.92s-30.165,12.973-30.165,28.92,13.532,28.92,30.165,28.92S1469.59,263.473,1469.59,247.526Z" transform="translate(-1355.934 -167.481)" fill="url(#linear-gradient-35)"/>
        <path id="Path_60806" data-name="Path 60806" d="M1417.96,251.638c0-13.405,11.376-24.312,25.358-24.312s25.359,10.907,25.359,24.312-11.376,24.312-25.359,24.312S1417.96,265.043,1417.96,251.638Zm50.238,0c0-13.152-11.161-23.853-24.88-23.853s-24.88,10.7-24.88,23.853,11.161,23.853,24.88,23.853S1468.2,264.791,1468.2,251.638Z" transform="translate(-1359.827 -171.592)" fill="url(#linear-gradient-36)"/>
      </g>
      <g id="Group_32248" data-name="Group 32248" transform="translate(317.222 127.319)" style="mix-blend-mode: color-dodge;isolation: isolate">
        <path id="Path_60807" data-name="Path 60807" d="M773.779,478.9c0-67.216,57.038-121.9,127.147-121.9s127.147,54.684,127.147,121.9S971.035,600.8,900.926,600.8,773.779,546.115,773.779,478.9Zm253.565,0c0-66.831-56.711-121.2-126.418-121.2s-126.419,54.37-126.419,121.2,56.711,121.2,126.419,121.2S1027.344,545.73,1027.344,478.9Z" transform="translate(-773.779 -357)" fill="url(#linear-gradient-37)"/>
        <path id="Path_60808" data-name="Path 60808" d="M787.757,485.161c0-62.961,53.428-114.184,119.1-114.184s119.1,51.223,119.1,114.184-53.428,114.183-119.1,114.183S787.757,548.121,787.757,485.161Zm237.469,0c0-62.576-53.1-113.485-118.37-113.485s-118.37,50.91-118.37,113.485,53.1,113.485,118.37,113.485S1025.226,547.736,1025.226,485.161Z" transform="translate(-779.709 -363.261)" fill="url(#linear-gradient-38)"/>
        <path id="Path_60809" data-name="Path 60809" d="M801.733,491.422c0-58.707,49.817-106.468,111.051-106.468s111.051,47.761,111.051,106.468S974.018,597.89,912.784,597.89,801.733,550.128,801.733,491.422Zm221.373,0c0-58.321-49.49-105.769-110.322-105.769S802.462,433.1,802.462,491.422s49.49,105.769,110.322,105.769S1023.106,549.743,1023.106,491.422Z" transform="translate(-785.637 -369.522)" fill="url(#linear-gradient-39)"/>
        <path id="Path_60810" data-name="Path 60810" d="M815.711,497.683c0-54.452,46.207-98.752,103-98.752s103,44.3,103,98.752-46.206,98.751-103,98.751S815.711,552.134,815.711,497.683Zm205.277,0c0-54.067-45.88-98.053-102.274-98.053S816.44,443.616,816.44,497.683s45.88,98.052,102.274,98.052S1020.988,551.749,1020.988,497.683Z" transform="translate(-791.567 -375.783)" fill="url(#linear-gradient-40)"/>
        <path id="Path_60811" data-name="Path 60811" d="M829.688,503.945c0-50.2,42.6-91.036,94.955-91.036s94.954,40.838,94.954,91.036S977,594.98,924.643,594.98,829.688,554.142,829.688,503.945Zm189.181,0c0-49.812-42.27-90.337-94.226-90.337s-94.226,40.525-94.226,90.337,42.27,90.337,94.226,90.337S1018.869,553.757,1018.869,503.945Z" transform="translate(-797.495 -382.045)" fill="url(#linear-gradient-41)"/>
        <path id="Path_60812" data-name="Path 60812" d="M843.665,510.206c0-45.943,38.986-83.32,86.907-83.32s86.907,37.377,86.907,83.32-38.986,83.319-86.907,83.319S843.665,556.148,843.665,510.206Zm173.085,0c0-45.558-38.66-82.621-86.178-82.621s-86.178,37.064-86.178,82.621,38.659,82.621,86.178,82.621S1016.75,555.763,1016.75,510.206Z" transform="translate(-803.424 -388.306)" fill="url(#linear-gradient-42)"/>
        <path id="Path_60813" data-name="Path 60813" d="M857.643,516.467c0-41.688,35.375-75.6,78.858-75.6s78.858,33.916,78.858,75.6-35.375,75.6-78.858,75.6S857.643,558.155,857.643,516.467Zm156.988,0c0-41.3-35.049-74.905-78.13-74.905s-78.13,33.6-78.13,74.905,35.049,74.905,78.13,74.905S1014.631,557.769,1014.631,516.467Z" transform="translate(-809.354 -394.567)" fill="url(#linear-gradient-43)"/>
        <path id="Path_60814" data-name="Path 60814" d="M871.62,522.728c0-37.433,31.765-67.887,70.81-67.887s70.81,30.454,70.81,67.887-31.765,67.888-70.81,67.888S871.62,560.162,871.62,522.728Zm140.891,0c0-37.048-31.439-67.189-70.082-67.189s-70.081,30.141-70.081,67.189,31.438,67.189,70.081,67.189S1012.512,559.776,1012.512,522.728Z" transform="translate(-815.283 -400.829)" fill="url(#linear-gradient-44)"/>
        <path id="Path_60815" data-name="Path 60815" d="M885.6,528.99c0-33.179,28.155-60.172,62.762-60.172s62.762,26.993,62.762,60.172-28.155,60.172-62.762,60.172S885.6,562.168,885.6,528.99Zm124.8,0c0-32.794-27.828-59.473-62.034-59.473s-62.034,26.68-62.034,59.473,27.828,59.473,62.034,59.473S1010.392,561.783,1010.392,528.99Z" transform="translate(-821.212 -407.09)" fill="url(#linear-gradient-45)"/>
        <path id="Path_60816" data-name="Path 60816" d="M899.574,535.251c0-28.924,24.545-52.456,54.714-52.456S1009,506.327,1009,535.251s-24.545,52.456-54.714,52.456S899.574,564.175,899.574,535.251Zm108.7,0c0-28.539-24.217-51.757-53.985-51.757S900.3,506.711,900.3,535.251s24.218,51.757,53.986,51.757S1008.273,563.79,1008.273,535.251Z" transform="translate(-827.141 -413.351)" fill="url(#linear-gradient-46)"/>
        <path id="Path_60817" data-name="Path 60817" d="M913.551,541.512c0-24.67,20.934-44.74,46.666-44.74s46.666,20.07,46.666,44.74-20.934,44.74-46.666,44.74S913.551,566.181,913.551,541.512Zm92.6,0c0-24.284-20.608-44.041-45.937-44.041s-45.937,19.757-45.937,44.041,20.607,44.041,45.937,44.041S1006.154,565.8,1006.154,541.512Z" transform="translate(-833.07 -419.612)" fill="url(#linear-gradient-47)"/>
        <path id="Path_60818" data-name="Path 60818" d="M927.528,547.773c0-20.415,17.324-37.024,38.618-37.024s38.618,16.609,38.618,37.024S987.44,584.8,966.146,584.8,927.528,568.188,927.528,547.773Zm76.507,0c0-20.03-17-36.325-37.889-36.325s-37.889,16.3-37.889,36.325,17,36.325,37.889,36.325S1004.035,567.8,1004.035,547.773Z" transform="translate(-838.999 -425.874)" fill="url(#linear-gradient-48)"/>
      </g>
      <path id="Path_60819" data-name="Path 60819" d="M1833,795.317a11.815,11.815,0,1,1,11.8,11.317A11.568,11.568,0,0,1,1833,795.317Zm19.017,0a7.22,7.22,0,1,0-7.214,6.916A7.069,7.069,0,0,0,1852.018,795.317Z" transform="translate(-1833 -358.636)" fill="url(#linear-gradient-49)" style="mix-blend-mode: color-dodge;isolation: isolate"/>
    </g>
  </g>
</svg>
